<?xml version="1.0" standalone="no"?>
<!DOCTYPE svg PUBLIC "-//W3C//DTD SVG 20010904//EN"
 "http://www.w3.org/TR/2001/REC-SVG-20010904/DTD/svg10.dtd">
<svg version="1.0" xmlns="http://www.w3.org/2000/svg"
 width="85pt" height="45pt" viewBox="0 0 394.000000 247.000000"
 preserveAspectRatio="xMidYMid meet">
<metadata>
Created by Potrace Professional 1.1m
</metadata>
<g transform="translate(-203.000000,407.000000) rotate(-360.00) scale(0.095238,-0.095238)"
fill="#000000" stroke="none">
<path d="M3756 3688 l-2 -585 -192 -5 -192 -6 415 -414 415 -415 415 415 415
414 -192 6 -192 5 -2 585 -3 586 -441 0 -441 0 -3 -586z"/>
<path d="M2132 2121 l0 -441 2068 0 2069 0 0 441 0 441 -147 0 -147 0 0 -294
0 -294 -1775 0 -1774 0 0 294 0 294 -147 0 -147 0 0 -441z"/>
</g>
</svg>
