

<svg version="1.0" xmlns="http://www.w3.org/2000/svg"
 width="24pt" height="18pt" viewBox="0 0 1049.321060 749.194193"
 preserveAspectRatio="xMidYMid meet">
<metadata>
Created by Markus Sagen
</metadata>
<g transform="translate(-75.134930,974.694193) rotate(-360.00) scale(0.095238,-0.095238)"
fill="#000000" stroke="none">
    <path d="M1416 10222 c-497 -100 -771 -654 -550 -1114 98 -202 289 -360 510
-422 65 -17 295 -18 4924 -18 4629 0 4859 1 4924 18 221 62 412 219 510 422
57 119 73 193 73 342 0 149 -16 223 -73 342 -96 200 -281 354 -504 421 -61 18
-274 19 -4904 21 -3984 1 -4853 -1 -4910 -12z"/>
    <path d="M1416 7072 c-497 -100 -771 -654 -550 -1114 98 -202 289 -360 510
-422 65 -17 295 -18 4924 -18 4629 0 4859 1 4924 18 221 62 412 219 510 422
57 119 73 193 73 342 0 149 -16 223 -73 342 -96 200 -281 354 -504 421 -61 18
-274 19 -4904 21 -3984 1 -4853 -1 -4910 -12z"/>
    <path d="M1416 3922 c-497 -100 -771 -654 -550 -1114 98 -202 289 -360 510
-422 65 -17 295 -18 4924 -18 4629 0 4859 1 4924 18 221 62 412 219 510 422
57 119 73 193 73 342 0 149 -16 223 -73 342 -96 200 -281 354 -504 421 -61 18
-274 19 -4904 21 -3984 1 -4853 -1 -4910 -12z"/>
</g>
</svg>
