<svg width="12pt" height="12pt" viewBox="0 0 1946 2607" version="1.1" 
xmlns="http://www.w3.org/2000/svg"
style="fill-rule:evenodd;clip-rule:evenodd;stroke-linejoin:round;stroke-miterlimit:2;">
    <metadata>Created by Markus Sagen</metadata>
    <g><path d="M641.269,7.936c-22.619,10.318 -48.412,40.477 -54.762,64.286c-3.174,10.714 -5.158,36.905 -5.158,58.333c0,33.334 -1.588,40.873 -8.731,50l-8.73,11.111l-245.634,0c-236.111,0 -246.429,0.397 -261.905,8.334c-20.238,10.317 -38.492,28.571 -48.413,48.809c-7.142,13.889 -7.936,25.397 -7.936,94.841c0,78.969 0,79.365 11.508,98.81c6.349,11.111 17.857,24.603 25.397,30.159c32.143,24.603 -31.349,23.015 935.316,23.412c829.761,0 887.301,-0.793 905.952,-7.539c23.809,-8.334 45.238,-27.778 58.333,-52.381c8.333,-15.873 9.127,-23.016 9.127,-90.476c0,-82.143 -2.778,-95.635 -26.587,-121.826c-29.762,-33.333 -18.254,-32.143 -286.111,-32.143c-231.349,0 -238.492,-0.396 -248.809,-8.333c-9.921,-7.936 -10.715,-10.317 -11.905,-61.508c-1.587,-50 -2.381,-54.365 -13.492,-71.825c-15.08,-23.81 -22.222,-30.556 -43.651,-41.27c-16.667,-8.73 -20.238,-8.73 -336.904,-8.73c-301.191,0 -321.032,0.794 -336.905,7.936Z" style="fill:#fff;fill-rule:nonzero;"/><path d="M153.968,619.841c-30.555,10.714 -45.635,23.412 -57.936,47.619c-12.302,24.603 -13.492,47.222 -6.35,108.73c5.556,49.206 15.873,145.238 20.635,196.825c2.381,22.619 5.953,57.54 8.334,76.984c2.381,19.444 7.143,64.286 10.714,100c3.571,35.714 7.936,78.571 10.317,95.635c1.985,17.46 5.953,51.19 7.937,75c2.381,24.206 7.143,69.444 10.317,100c3.572,30.952 9.127,83.73 12.699,116.666c3.174,33.333 9.127,87.698 12.698,121.032c3.572,33.333 8.333,78.174 10.318,100c2.381,21.825 5.952,55.555 8.333,75c1.984,19.444 6.746,63.492 10.317,98.015c3.572,34.127 9.127,87.699 12.699,118.651c3.174,30.952 8.73,84.524 12.301,118.651c3.572,34.523 8.334,78.571 10.715,98.015c1.984,19.445 5.952,55.159 8.333,78.969c19.048,187.698 19.841,192.857 45.238,221.825c9.921,11.111 25.794,23.016 38.889,28.968l21.825,9.921l1241.67,0l21.031,-9.524c40.08,-18.651 61.905,-48.81 68.254,-94.841c3.969,-27.381 8.73,-71.032 23.81,-214.683c3.174,-32.936 9.127,-86.508 12.301,-118.65c3.572,-32.143 9.127,-84.524 12.302,-116.667c3.175,-32.143 8.73,-84.524 12.302,-116.666c3.571,-32.143 8.333,-77.778 10.714,-101.985c2.381,-24.206 5.952,-58.73 7.936,-76.984c2.381,-18.254 7.143,-61.507 10.715,-96.031c3.571,-34.127 7.936,-78.175 10.317,-98.016c2.381,-19.444 5.952,-53.968 8.333,-76.984c1.984,-23.016 6.746,-67.857 10.318,-100c3.571,-32.143 9.127,-85.317 12.698,-118.651c3.175,-33.333 8.73,-86.507 12.302,-118.65c3.571,-32.143 8.333,-78.175 10.714,-102.381c1.984,-23.81 5.952,-57.54 7.937,-75c2.38,-17.064 6.746,-61.111 10.714,-97.619c3.571,-36.905 8.333,-80.555 10.317,-97.222c9.921,-73.016 2.778,-107.143 -26.984,-135.317c-31.746,-29.762 28.175,-28.175 -869.047,-27.778c-754.364,0 -807.538,0.397 -826.983,7.143Zm382.539,241.666c24.207,8.333 47.223,29.762 57.54,52.778c4.365,10.714 9.524,42.063 13.889,83.73c3.571,36.508 8.333,84.524 10.714,105.952c2.381,21.826 5.953,61.508 8.334,87.698c2.777,26.191 7.539,76.191 10.714,110.318c11.508,115.476 18.651,191.269 22.619,237.698c2.381,25 5.952,62.698 8.333,83.333c1.984,20.635 6.746,69.445 10.318,108.333c3.571,38.889 8.333,87.699 10.714,108.334c1.984,20.635 5.952,59.127 8.333,85.317c5.953,63.889 15.476,163.095 23.016,239.682c11.905,120.635 11.905,128.968 3.968,148.413c-17.063,42.857 -49.603,65.873 -93.254,65.873c-38.492,0 -66.666,-15.079 -86.507,-46.429c-11.508,-18.254 -16.27,-48.412 -28.572,-184.523c-3.968,-41.27 -8.73,-90.873 -10.714,-110.714c-1.984,-19.445 -5.952,-56.746 -8.333,-83.334c-5.953,-63.889 -23.81,-253.968 -34.921,-367.46c-12.698,-127.777 -19.444,-197.618 -23.016,-240.872c-2.381,-23.81 -5.952,-61.508 -8.333,-83.334c-2.381,-21.428 -7.143,-71.428 -10.714,-110.317c-3.572,-38.889 -9.524,-96.032 -12.699,-127.381c-7.936,-73.809 -7.54,-85.317 2.778,-107.936c11.508,-25 26.587,-40.873 51.587,-52.381c25,-11.905 47.222,-12.699 74.206,-2.778Zm479.365,0c24.206,8.73 47.222,29.762 57.54,53.571c7.539,17.064 7.936,40.873 7.936,703.571c-0.397,757.142 1.587,701.19 -26.587,730.952c-19.048,20.238 -41.667,29.365 -73.016,29.365c-44.444,0.397 -76.587,-22.619 -93.651,-65.476c-6.349,-16.27 -6.746,-70.635 -6.746,-694.047c0,-743.253 -1.984,-696.428 25,-728.571c15.476,-19.047 50.397,-36.508 72.619,-36.905c9.127,0 25.794,3.572 36.905,7.54Zm500.793,7.143c22.222,13.095 41.667,38.095 48.016,61.905c4.762,16.666 2.778,41.666 -13.095,194.444c-1.984,21.825 -5.953,60.317 -7.937,85.317c-5.555,60.318 -22.619,234.524 -35.714,367.857c-7.143,75.397 -16.27,170.238 -22.222,236.508c-2.381,25 -6.349,63.492 -8.334,85.317c-2.38,21.825 -7.142,70.635 -10.714,108.333c-3.571,37.699 -8.333,85.715 -10.714,106.349c-1.984,20.635 -5.556,59.127 -7.937,85.318c-9.127,100 -11.111,111.904 -23.809,132.539c-7.937,12.699 -19.841,24.207 -34.524,32.937c-19.841,11.905 -26.19,13.492 -51.984,13.492c-42.063,0 -68.651,-16.667 -88.889,-55.952c-9.92,-19.842 -10.317,-23.413 -7.936,-64.683c1.587,-24.206 5.555,-71.032 9.127,-104.365c3.174,-32.936 8.73,-90.079 12.301,-126.984c3.572,-36.508 9.127,-95.635 12.699,-131.349c9.92,-100 18.254,-189.286 22.619,-239.285c2.381,-25.397 5.952,-63.889 8.333,-85.715c2.381,-21.428 7.143,-68.254 10.714,-103.968c3.175,-35.714 7.937,-84.524 10.318,-108.73c2.381,-24.206 6.349,-63.492 8.333,-87.301c2.381,-24.207 6.746,-72.619 10.318,-108.334c3.571,-35.317 9.127,-94.444 12.698,-130.952c10.317,-112.301 13.492,-123.412 41.27,-149.206c11.508,-10.714 23.809,-17.857 44.047,-25.397c14.683,-5.555 54.365,0.794 73.016,11.905Z" style="fill:#fff;fill-rule:nonzero;"/>
    </g>
</svg>