<?xml version="1.0" encoding="UTF-8"?> <svg xmlns="http://www.w3.org/2000/svg" xmlns:xlink="http://www.w3.org/1999/xlink" width="721.584" height="568.738" viewBox="0 0 721.584 568.738"><defs><linearGradient id="linear-gradient" x1="0.527" y1="-0.091" x2="0.527" y2="0.909" gradientUnits="objectBoundingBox"><stop offset="0" stop-color="gray" stop-opacity="0.251"></stop><stop offset="0.54" stop-color="gray" stop-opacity="0.122"></stop><stop offset="1" stop-color="gray" stop-opacity="0.102"></stop></linearGradient><filter id="Path_743" x="29.047" y="381.795" width="692.537" height="119.8"><feOffset dy="3"></feOffset><feGaussianBlur stdDeviation="3" result="blur"></feGaussianBlur><feFlood flood-opacity="0.161"></feFlood><feComposite operator="in" in2="blur"></feComposite><feComposite in="SourceGraphic"></feComposite></filter></defs><g id="Contact" transform="translate(-0.004 124.264)"><path id="Path_719" data-name="Path 719" d="M296.039,483.009C344.728,456.065,400.347,447.455,454.7,459c77.023,16.375,173.826,9.956,192.576-116.374,32.023-215.755-102.173-272.7-102.173-272.7S455.865,62.454,403.1,34C328.138-6.431,242.46-11.58,167.124,22.629c-48.177,21.858-87.851,52.3-94.63,94.086C53.542,233.589,84.669,297.983,26.44,336.134S17.975,479.029,62.614,475.4,208.125,432,247.432,478.075C261.394,494.419,279.057,492.41,296.039,483.009Z" transform="translate(0 -45.754)" fill="#f7f9fd"></path><rect id="Rectangle_571" data-name="Rectangle 571" width="200.896" height="13.898" transform="translate(326.154 171.694)" fill="#6c63ff" opacity="0.1"></rect><rect id="Rectangle_572" data-name="Rectangle 572" width="12.635" height="2.527" transform="translate(343.843 160.954)" fill="#6c63ff" opacity="0.1"></rect><rect id="Rectangle_573" data-name="Rectangle 573" width="12.635" height="2.527" transform="translate(362.796 160.954)" fill="#6c63ff" opacity="0.1"></rect><rect id="Rectangle_574" data-name="Rectangle 574" width="12.635" height="2.527" transform="translate(381.748 160.954)" fill="#6c63ff" opacity="0.1"></rect><rect id="Rectangle_575" data-name="Rectangle 575" width="12.635" height="2.527" transform="translate(400.701 160.954)" fill="#6c63ff" opacity="0.1"></rect><rect id="Rectangle_576" data-name="Rectangle 576" width="12.635" height="2.527" transform="translate(419.653 160.954)" fill="#6c63ff" opacity="0.1"></rect><rect id="Rectangle_577" data-name="Rectangle 577" width="12.635" height="2.527" transform="translate(438.606 160.954)" fill="#6c63ff" opacity="0.1"></rect><ellipse id="Ellipse_137" data-name="Ellipse 137" cx="34.114" cy="12.13" rx="34.114" ry="12.13" transform="translate(594.49 328.007)" opacity="0.1"></ellipse><path id="Path_720" data-name="Path 720" d="M986.854,488.052s19.464-66.075-3.651-114.713a104.393,104.393,0,0,1-8.44-65.474,175.52,175.52,0,0,1,9.268-30.735" transform="translate(-358.225 -147.814)" fill="none" stroke="#263238" stroke-miterlimit="10" stroke-width="2"></path><path id="Path_721" data-name="Path 721" d="M967.83,219.916c0,8.1,14.663,31.587,14.663,31.587s14.663-23.482,14.663-31.587a14.663,14.663,0,0,0-29.326-.023v.023Z" transform="translate(-356.403 -121.341)" fill="#ffc600"></path><path id="Path_722" data-name="Path 722" d="M928.073,286.271c4.422,6.8,29.471,18.542,29.471,18.542s-.455-27.683-4.858-34.481a14.672,14.672,0,0,0-24.638,15.939Z" transform="translate(-340.886 -142.842)" fill="#ffc600"></path><path id="Path_723" data-name="Path 723" d="M926.409,404.629c7.234,3.645,34.8,1.125,34.8,1.125s-14.366-23.665-21.6-27.31a14.663,14.663,0,0,0-13.2,26.186Z" transform="translate(-338.18 -184.543)" fill="#ffc600"></path><path id="Path_724" data-name="Path 724" d="M949.645,496.91c6.513,4.814,34.115,6.993,34.115,6.993s-10.159-25.756-16.672-30.57a14.664,14.664,0,0,0-17.443,23.577Z" transform="translate(-347.518 -219.007)" fill="#ffc600"></path><path id="Path_725" data-name="Path 725" d="M1005.7,316.593c-5.806,5.642-32.851,11.485-32.851,11.485s6.627-26.881,12.433-32.522a14.663,14.663,0,1,1,20.532,20.939l-.1.1Z" transform="translate(-358.252 -153.055)" fill="#ffc600"></path><path id="Path_726" data-name="Path 726" d="M1028.823,422.479c-7.234,3.645-34.8,1.124-34.8,1.124s14.366-23.665,21.6-27.31a14.663,14.663,0,1,1,13.2,26.186Z" transform="translate(-366.048 -191.117)" fill="#ffc600"></path><path id="Path_727" data-name="Path 727" d="M1038.564,530.773c-6.513,4.814-34.114,6.993-34.114,6.993s10.159-25.756,16.672-30.57a14.663,14.663,0,1,1,17.7,23.38q-.132.1-.266.2Z" transform="translate(-369.889 -231.441)" fill="#ffc600"></path><ellipse id="Ellipse_138" data-name="Ellipse 138" cx="34.114" cy="12.13" rx="34.114" ry="12.13" transform="translate(509.583 293.135)" opacity="0.1"></ellipse><path id="Path_728" data-name="Path 728" d="M854.594,500.768s9.116-30.956-1.712-53.743a48.9,48.9,0,0,1-3.955-30.678,82.2,82.2,0,0,1,4.346-14.4" transform="translate(-312.281 -193.779)" fill="none" stroke="#263238" stroke-miterlimit="10" stroke-width="2"></path><path id="Path_729" data-name="Path 729" d="M845.666,375.145c0,3.79,6.867,14.8,6.867,14.8s6.867-11.005,6.867-14.8a6.87,6.87,0,1,0-13.74,0Z" transform="translate(-311.414 -181.378)" fill="#ffc600"></path><path id="Path_730" data-name="Path 730" d="M827.057,406.228c2.06,3.159,13.81,8.687,13.81,8.687s-.215-12.97-2.274-16.154a6.871,6.871,0,1,0-11.536,7.467Z" transform="translate(-304.157 -191.449)" fill="#ffc600"></path><path id="Path_731" data-name="Path 731" d="M826.285,461.679c3.386,1.706,16.305.531,16.305.531s-6.728-11.087-10.108-12.8a6.87,6.87,0,1,0-6.185,12.269Z" transform="translate(-302.892 -210.985)" fill="#ffc600"></path><path id="Path_732" data-name="Path 732" d="M837.139,504.918c3.051,2.255,15.983,3.279,15.983,3.279s-4.763-12.066-7.808-14.322a6.87,6.87,0,0,0-8.169,11.049Z" transform="translate(-307.252 -227.135)" fill="#ffc600"></path><path id="Path_733" data-name="Path 733" d="M863.412,420.454c-2.723,2.641-15.4,5.383-15.4,5.383s3.108-12.6,5.825-15.238a6.869,6.869,0,1,1,9.571,9.855h.006Z" transform="translate(-312.279 -196.249)" fill="#ffc600"></path><path id="Path_734" data-name="Path 734" d="M874.275,470.049c-3.386,1.706-16.305.531-16.305.531s6.728-11.087,10.108-12.8a6.87,6.87,0,0,1,6.185,12.269h.013Z" transform="translate(-315.947 -214.067)" fill="#ffc600"></path><path id="Path_735" data-name="Path 735" d="M878.793,520.777c-3.051,2.255-15.983,3.279-15.983,3.279s4.763-12.066,7.808-14.322a6.87,6.87,0,0,1,8.175,11.043Z" transform="translate(-317.729 -232.974)" fill="#ffc600"></path><path id="Path_736" data-name="Path 736" d="M736.472,438.646,540.857,334.881H499.838l10.613-88.344a14.644,14.644,0,0,0-12.793-16.286c-.1-.012-.193-.023-.291-.032l-1.1.044h-.107l-149.225,2.268a16.1,16.1,0,0,0-16.817,12.4L323.169,295.7l-1-1.535-.486-.739c3.67-2.388-3.569-16.583-9.7-27.165l-.556-.96c3.892-1.624,8.213-3.159,8.213-3.159l-9.571-5.976a260.132,260.132,0,0,0-18.182-23.09c6.317-39.56-7.025-85.286-7.183-85.918l-.354.095a18.885,18.885,0,0,0,2.818-9.982h0a18.951,18.951,0,0,0-6.393-14.2c-.373-3.386-.91-6.873-1.68-10.544h0c-.139-.632-.284-1.333-.442-2-.72-3.159-1.447-6.317-2.4-9.413a47.428,47.428,0,0,0-2.457-6.45C268.8,84.127,258.548,76.6,247.315,73.944c-5.781-1.365-11.706.752-17.1-.259-2.717-.5-5.149-3.108-7.8-4.163a49,49,0,0,0-10.538-2.527c-4.422-.739-9.015-1.472-13.418-.512-7.265,1.579-12.806,7.467-16.88,13.684s-7.24,13.1-12.275,18.573c-3.367,3.664-7.511,6.608-10.512,10.575-4.422,5.837-5.957,13.267-7.379,20.481-1.756,8.876-3.513,17.878-3.475,26.894,0,2.091.032,4.189.215,6.286.461,5.383,1.687,10.689,1.977,16.078,0,.581.044,1.162.057,1.744-.063,9.862-2.976,19.584-5.869,29.06-.922,3.013-1.857,6.052-2.95,9.021-5.812.493-11.371,1.655-15.61,3.942-15.49,8.289-27.412,26.773-27.412,26.773L75.688,270.443s8.946,4.176,13.121,11.334a5.087,5.087,0,0,0,.512.714l-.329.758-13.3,30.728a32.9,32.9,0,0,0,20.848,4.77,15.52,15.52,0,0,1,6.065.442c0,.379-.038.764-.051,1.169-.764,17.582-1.169,56.106,7.928,82.127L89.921,426.491,48.858,438.652,47.07,470.239h690.6ZM144.214,320.856a25.163,25.163,0,0,1,5.123,1.63v21.96a140.759,140.759,0,0,0-4.7-22.313C144.5,321.7,144.385,321.279,144.214,320.856Zm118.573,42.258v-.227a11.224,11.224,0,0,1,.31-2.274,6.43,6.43,0,0,1,1.649-3.07c1.522-1.522,3.1-3.159,4.669-4.934a22.981,22.981,0,0,0,4.132,6.829c2.022,2.255,6.539,4.283,12.881,6.115a232.457,232.457,0,0,0-23.64-2.439Zm51.557-3.032L293.7,366.19c-9.76-2.186-16.7-4.688-19.275-7.581a22.114,22.114,0,0,1-4.119-7.05c7.366-8.541,14.53-20.033,16.173-35.725.044-.411.076-.834.114-1.263a41.159,41.159,0,0,0,6.317-4.422l.373.872a111.125,111.125,0,0,0,23.154,33.849Z" transform="translate(-17.332 -70.074)" fill="url(#linear-gradient)"></path><path id="Path_737" data-name="Path 737" d="M402.609,190.493H397.22V153.22h5.389a15.516,15.516,0,0,1,15.516,15.516v6.2a15.516,15.516,0,0,1-15.478,15.554Z" transform="translate(-146.275 -102.184)" fill="#dfe6f5"></path><rect id="Rectangle_578" data-name="Rectangle 578" width="9.148" height="37.242" rx="4.574" transform="translate(246.371 51.068)" fill="#535461"></rect><rect id="Rectangle_579" data-name="Rectangle 579" width="94.187" height="97.7" transform="translate(164.711 70.766)" fill="#263238"></rect><rect id="Rectangle_580" data-name="Rectangle 580" width="94.187" height="97.7" transform="translate(164.711 57.309)" opacity="0.1"></rect><path id="Path_738" data-name="Path 738" d="M333.51,273.83l-5.686,41.316-2.679,19.42-.986,7.132L315.9,357.8l-15.162,29.541-29.25,3.513-51.45-72.556S193.1,266.811,234.06,271.486c22.964,2.628,28.429-17.929,28.839-36.5a138.073,138.073,0,0,0-2.527-27.86l40.95,19.894q-1.428,6.652-2.148,12.224c-2,15.2-.341,24.676,3.121,30.419C311.513,284.961,333.51,273.83,333.51,273.83Z" transform="translate(-77.827 -122.036)" fill="#fdc2cc"></path><path id="Path_739" data-name="Path 739" d="M329.913,227.037q-1.428,6.652-2.148,12.224a47.633,47.633,0,0,1-13.065,1.819,47.153,47.153,0,0,1-23.223-6.071,138.075,138.075,0,0,0-2.527-27.86Z" transform="translate(-106.405 -122.044)" opacity="0.1"></path><circle id="Ellipse_139" data-name="Ellipse 139" cx="47.387" cy="47.387" r="47.387" transform="translate(160.908 23.088)" fill="#fcd6cd"></circle><path id="Path_740" data-name="Path 740" d="M316.169,540.288,121.35,555.513l31.587-36.856c33.893-20.709,33.6-49.175,29.1-66.833a68.713,68.713,0,0,0-6.286-16.242l67.338.316h.569l5.534,12.578.253.569,4.119,9.356L267.6,433.245l4.883-7.872,2.729-4.422s40.369-9.363,40.95,14.625a64.14,64.14,0,0,1-.322,8.251c-2.009,19.306-12.572,32.143-21.322,40.893C284.575,494.657,316.169,540.288,316.169,540.288Z" transform="translate(-44.686 -200.114)" fill="#ec7580"></path><path id="Path_741" data-name="Path 741" d="M307.127,489.565c-1.428,5.686,2.173,15.459,6.949,25.055-22.9,2.464-48.013,1.181-48.013,1.181l-25.769,7.025-72.537,21.063a55.289,55.289,0,0,1-7.777-15.01l7.189-8.39c22.623-13.823,30.014-31.1,31.095-46.313a65.072,65.072,0,0,0-2-20.525,68.694,68.694,0,0,0-6.28-16.23l67.338.316h.569l5.534,12.578.253.569,4.119,9.356,14.037-25.156,4.871-7.872,2.729-4.422s40.369-9.375,40.956,14.631a64.147,64.147,0,0,1-.322,8.251c-2.009,19.306-12.572,32.143-21.322,40.893A6.32,6.32,0,0,0,307.127,489.565Z" transform="translate(-58.911 -200.789)" fill="#ffc600"></path><path id="Path_742" data-name="Path 742" d="M560.13,515.487c-1.169,14.038-35.1-4.681-35.1-4.681s-10.531-3.513-46.219-26.325a108.964,108.964,0,0,1-41.064-47.943,68.822,68.822,0,0,1-3.418-9.388L458.918,409l7.17,10.961,23.836,36.42,35.1,23.375S561.3,501.45,560.13,515.487Z" transform="translate(-159.941 -196.375)" fill="#fbd7ce"></path><g transform="matrix(1, 0, 0, 1, 0, -124.26)" filter="url(#Path_743)"><path id="Path_743-2" data-name="Path 743" d="M734.767,591.38H60.23L127.758,571.4l168.816-49.959,107.65-31.859H542.879Z" transform="translate(-22.18 -101.79)" fill="#fdf9f9"></path></g><path id="Path_744" data-name="Path 744" d="M59.206,650.72,57.45,681.726H734.912l-1.169-31.006Z" transform="translate(-21.154 -285.389)" fill="#efefef"></path><path id="Path_745" data-name="Path 745" d="M59.206,650.72,57.45,681.726H734.912l-1.169-31.006Z" transform="translate(-21.154 -285.389)" fill="#ffc600" opacity="0.1"></path><path id="Path_746" data-name="Path 746" d="M339.683,572.77l142.579-14.65,1.756,28.081-65.171,6.463a42.558,42.558,0,0,1-13.406-1.042L339.563,574.6a.935.935,0,0,1,.12-1.832Z" transform="translate(-124.786 -251.289)" fill="#535461"></path><path id="Path_747" data-name="Path 747" d="M339.683,572.77l142.579-14.65,1.756,28.081-65.171,6.463a42.558,42.558,0,0,1-13.406-1.042L339.563,574.6a.935.935,0,0,1,.12-1.832Z" transform="translate(-124.786 -251.289)" opacity="0.2"></path><path id="Path_748" data-name="Path 748" d="M339.673,571.84l143.754-14.65,1.756,28.081-65.177,5.281a42.57,42.57,0,0,1-13.4-1.023l-67.054-15.851a.935.935,0,0,1,.12-1.838Z" transform="translate(-124.776 -250.947)" fill="#263238"></path><path id="Path_749" data-name="Path 749" d="M393.857,577.485l76.012-7.745.929,14.846-34.462,2.8a22.524,22.524,0,0,1-7.088-.55l-35.454-8.383a.493.493,0,0,1,.063-.967Z" transform="translate(-144.877 -255.568)" fill="#334347"></path><path id="Path_750" data-name="Path 750" d="M466.1,419.973a2.409,2.409,0,0,1-2.489.739c-11.7-1.756-25.156,15.212-25.156,15.212s-.24.227-.676.632a68.836,68.836,0,0,1-3.418-9.388L458.929,409Z" transform="translate(-159.952 -196.375)" opacity="0.1"></path><path id="Path_751" data-name="Path 751" d="M401.133,445.624c-5.5,3.064-13.077,5.262-18.984-.632-10.2-10.2-28.088-8.844-29.2-8.781,1.826-.253,3.443-4.005,4.82-9.034l2.729-4.422s40.369-9.35,40.956,14.657A64.121,64.121,0,0,1,401.133,445.624Z" transform="translate(-129.973 -200.781)" opacity="0.1"></path><path id="Path_752" data-name="Path 752" d="M379.611,378.11l-3.664,26.533-8.257,16.1a50.345,50.345,0,0,0-15.68-1.472c5.818-.8,9.577-37.159,9.577-37.159l.335-.076Z" transform="translate(-129.627 -185)" opacity="0.1"></path><path id="Path_753" data-name="Path 753" d="M433.631,403.182c-11.7-1.756-25.156,15.212-25.156,15.212s-15.794,15.213-26.325,4.681c-10.2-10.2-28.088-8.845-29.2-8.781,5.818-.809,9.577-37.166,9.577-37.166l.335-.076,56.143-12.483s3.348,5.13,7.126,11.662C432.948,388,441.161,404.313,433.631,403.182Z" transform="translate(-129.973 -180.014)" fill="#ffc600"></path><path id="Path_754" data-name="Path 754" d="M423.991,379.783c.588,1.169-9.363,7.019-14.037,5.262s-16.381,7.581-17.55,8.775-27.494-1.756-27.494-1.756a123.659,123.659,0,0,0,2.356-15.01L423.41,364.57s3.348,5.13,7.126,11.662C427.042,377.666,423.707,379.208,423.991,379.783Z" transform="translate(-134.377 -180.014)" opacity="0.1"></path><path id="Path_755" data-name="Path 755" d="M385.972,310.294l-5.686,41.316-2.679,19.42c-7.846-.588-17.36-1.643-17.36-1.643s9.944-41.537-6.437-63.175c0,0,.347,0,.973-.063C363.975,321.426,385.972,310.294,385.972,310.294Z" transform="translate(-130.289 -158.501)" opacity="0.1"></path><path id="Path_756" data-name="Path 756" d="M354.72,306.05s29.837-2.337,41.537,5.85,28.669,32.762,28.669,32.762l9.362,5.85s-14.625,5.262-14.037,6.438-9.363,7.019-14.037,5.262-16.381,7.581-17.55,8.775-27.494-1.756-27.494-1.756S371.1,327.694,354.72,306.05Z" transform="translate(-130.625 -158.35)" fill="#ffc600"></path><path id="Path_757" data-name="Path 757" d="M500.842,329.306l147.286-2.236a14.366,14.366,0,0,1,12.835,15.75c-.009.087-.019.172-.029.259l-16.71,139.111a14.366,14.366,0,0,1-13.4,12.635l-150.539,9.318a14.366,14.366,0,0,1-15.074-16.425l19.989-146.2A14.366,14.366,0,0,1,500.842,329.306Z" transform="translate(-171.257 -166.204)" fill="#535461"></path><path id="Path_758" data-name="Path 758" d="M500.842,329.306l147.286-2.236a14.366,14.366,0,0,1,12.835,15.75c-.009.087-.019.172-.029.259l-16.71,139.111a14.366,14.366,0,0,1-13.4,12.635l-150.539,9.318a14.366,14.366,0,0,1-15.074-16.425l19.989-146.2A14.366,14.366,0,0,1,500.842,329.306Z" transform="translate(-171.257 -166.204)" opacity="0.2"></path><path id="Path_759" data-name="Path 759" d="M502.7,329.306l147.286-2.236A14.366,14.366,0,0,1,662.843,342.8c-.009.094-.02.188-.031.282L646.1,482.189a14.366,14.366,0,0,1-13.4,12.635l-150.558,9.318a14.366,14.366,0,0,1-15.074-16.425l19.988-146.2A14.366,14.366,0,0,1,502.7,329.306Z" transform="translate(-171.942 -166.204)" fill="#263238"></path><circle id="Ellipse_140" data-name="Ellipse 140" cx="7.019" cy="7.019" r="7.019" transform="translate(395.798 235.159)" fill="#334347"></circle><path id="Path_760" data-name="Path 760" d="M314.076,545.631c-22.9,2.464-48.013,1.181-48.013,1.181l-25.769,7.019-72.537,21.063a55.288,55.288,0,0,1-7.777-15.01l7.189-8.39c22.623-13.823,30.014-31.1,31.095-46.313,1.933,15.13,2.255,28.757,2.255,28.757l29.25-2.925,42.5-10.108a38.385,38.385,0,0,1,8.933-1.042c5.534,0,15.383.12,25.9.689C305.7,526.242,309.3,536.022,314.076,545.631Z" transform="translate(-58.911 -231.794)" opacity="0.1"></path><path id="Path_761" data-name="Path 761" d="M348.817,550.86c-13.456,15.794-82.487,12.288-82.487,12.288l-25.744,7.019-72.544,21.056c-.316-.411-.632-.828-.922-1.264L335.942,540C346.72,542.173,353.334,545.559,348.817,550.86Z" transform="translate(-61.541 -244.616)" opacity="0.1"></path><path id="Path_762" data-name="Path 762" d="M339.967,513.543c-13.456,15.794-82.487,12.287-82.487,12.287l-25.744,7.012-72.544,21.063c-17.057-22.111-16.678-74.805-15.75-96.121.253-5.724.537-9.186.537-9.186s24.569-15.212,35.687,0a39.05,39.05,0,0,1,5.054,10.9c6.45,20.273,7.24,53.452,7.24,53.452l29.25-2.925,42.5-10.108a38.378,38.378,0,0,1,8.939-1.042C290.261,498.924,351.515,499.985,339.967,513.543Z" transform="translate(-52.69 -208.468)" fill="#fcd7cd"></path><path id="Path_763" data-name="Path 763" d="M184.926,459.5c-3.734-.809-8.263-.632-14.4,1.971-12.288,5.262-21.644,4.094-21.644,4.094s.752-5.97-5.218-7.783c.253-5.724.537-9.186.537-9.186s24.569-15.212,35.687,0A39.373,39.373,0,0,1,184.926,459.5Z" transform="translate(-52.901 -208.468)" opacity="0.1"></path><path id="Path_764" data-name="Path 764" d="M281.161,460.45h0c-.392.082-5.654,1.074-15.794-1.175-10.531-2.337-14.625,2.337-20.475,4.681s-21.031,3.513-26.906,1.175c-1.384-.556-2.773-1.263-4.245-1.9A68.718,68.718,0,0,0,207.48,447l67.338.316,6.1,12.578Z" transform="translate(-76.403 -210.369)" opacity="0.1"></path><path id="Path_765" data-name="Path 765" d="M242.259,436.265S237,437.434,226.465,435.1s-14.625,2.337-20.475,4.681-21.062,3.513-26.912,1.169-11.7-7.019-24.006-1.756-21.644,4.094-21.644,4.094,1.169-9.362-11.112-8.213a32.464,32.464,0,0,1-20.475-4.681l13.052-30.147,3.917-9.053,97.883-6.69h.467Z" transform="translate(-37.501 -187.353)" fill="#ffc600"></path><path id="Path_766" data-name="Path 766" d="M234.1,408.191c-6.438-10.531-40.369-1.169-40.369-1.169s-16.381,4.681-19.894-4.094-28.631-2.95-28.631-2.95-18.226,6.836-22.636.278l3.917-9.053,97.839-6.7Z" transform="translate(-45.135 -187.353)" opacity="0.1"></path><path id="Path_767" data-name="Path 767" d="M198.435,311.309s-32.175-6.438-47.381,1.756-26.906,26.325-26.906,26.325L101.91,359.865s8.775,4.094,12.869,11.112,22.819,0,22.819,0,25.156-5.85,28.669,2.925S186.16,378,186.16,378s33.931-9.362,40.369,1.169Z" transform="translate(-37.527 -159.515)" fill="#ffc600"></path><path id="Path_768" data-name="Path 768" d="M262.873,74.873c-4.359-.733-8.844-1.447-13.166-.505-7.126,1.548-12.559,7.328-16.558,13.418s-7.107,12.85-12.041,18.213c-3.3,3.595-7.366,6.482-10.31,10.373-4.334,5.73-5.844,13.039-7.24,20.09-2.047,10.348-4.1,20.848-3.2,31.379.455,5.281,1.655,10.481,1.939,15.794.575,10.67-2.578,21.145-5.686,31.366-2.154,7.063-4.378,14.259-8.636,20.292-2.824,4-6.444,7.347-9.893,10.816a6.071,6.071,0,0,0-1.813,2.66c-.745,3.02,2.9,5.054,5.686,6.419,8.522,4.252,14.113,12.547,20.74,19.382s16.11,12.7,25.226,9.963c2.7-.815,5.269-2.363,8.086-2.312a18.011,18.011,0,0,1,5.515,1.434,41.4,41.4,0,0,0,13.943,2.337,5.386,5.386,0,0,0,3.026-.632c1.409-.954,1.68-2.874,1.819-4.568.891-10.626,1.775-21.29,1.175-31.935-1.358-24.108-23.634-51.993-15.162-74.616,3.683-9.868,10.418-18.359,14.145-28.208,3.929-10.38,17.784-18.807,20.532-29.566a4.849,4.849,0,0,1,1.794-3.159c1.459-.9,3.361-.114,4.77.859,7.973,5.5,10.569,15.832,13.469,25.068A154.874,154.874,0,0,0,309.7,160.93c1.9,3.79,5.964,8.181,9.527,5.882-1.794,15.971-12.155,29.92-14.5,45.814-2.287,15.49,3.254,31.322,1.106,46.825a48.011,48.011,0,0,1-12.919,26.533,64.237,64.237,0,0,0,23.9.215c8.017-1.447,16.6-5.243,19.489-12.862,3.159-8.383-1.725-17.379-4.207-26-5.957-20.715-5.5-45.214-3.607-66.687,1.946-22.08,4.864-41.411-.082-63.017-1.213-5.3-2.445-10.645-4.77-15.56-4.89-10.329-14.947-17.721-25.971-20.323-5.686-1.339-11.485.739-16.779-.246-2.666-.5-5.054-3.051-7.644-4.087A48.091,48.091,0,0,0,262.873,74.873Z" transform="translate(-64.875 -72.98)" opacity="0.1"></path><path id="Path_769" data-name="Path 769" d="M336.262,271.443c-2.893,7.619-11.473,11.416-19.5,12.862a64.37,64.37,0,0,1-23.9-.215,48.047,48.047,0,0,0,12.919-26.533c2.154-15.509-3.386-31.341-1.106-46.825,2.344-15.9,12.7-29.85,14.5-45.821-3.563,2.3-7.663-2.072-9.533-5.882a155.215,155.215,0,0,1-8.661-21.694c-2.9-9.236-5.5-19.584-13.469-25.068-1.409-.973-3.31-1.756-4.77-.853a4.869,4.869,0,0,0-1.794,3.159c-2.742,10.74-16.6,19.18-20.525,29.56-3.734,9.849-10.468,18.321-14.151,28.208-8.44,22.617,13.835,50.5,15.162,74.609.594,10.645-.291,21.315-1.175,31.935-.145,1.7-.417,3.62-1.826,4.574a5.376,5.376,0,0,1-3.02.632,41.267,41.267,0,0,1-13.9-2.325A17.919,17.919,0,0,0,236,280.332c-2.818-.044-5.383,1.5-8.086,2.312-9.116,2.742-18.6-3.127-25.226-9.963s-12.231-15.118-20.747-19.344c-2.786-1.39-6.431-3.4-5.686-6.425a6.114,6.114,0,0,1,1.813-2.653c3.449-3.468,7.076-6.823,9.9-10.816,4.258-6.033,6.475-13.229,8.636-20.292,3.121-10.222,6.273-20.7,5.686-31.366-.278-5.288-1.478-10.487-1.939-15.794-.91-10.512,1.15-21.025,3.2-31.373,1.39-7.05,2.9-14.36,7.24-20.09,2.95-3.892,7.006-6.779,10.316-10.373,4.94-5.364,8.036-12.123,12.041-18.22s9.438-11.871,16.564-13.418c4.315-.941,8.807-.221,13.166.505a49.206,49.206,0,0,1,10.335,2.527c2.6,1.036,4.984,3.595,7.644,4.081,5.294.992,11.112-1.087,16.779.253,11.024,2.6,21.081,9.988,25.971,20.317a46.518,46.518,0,0,1,2.413,6.317c.935,3.032,1.649,6.134,2.356,9.23.152.632.3,1.314.436,1.965h0c4.327,20.57,1.535,35.548-.354,56.946s-2.35,50.066,3.6,70.756C334.537,254.058,339.446,263.06,336.262,271.443Z" transform="translate(-64.867 -72.3)" fill="#263238"></path><path id="Path_770" data-name="Path 770" d="M322.77,446.53s4.681,7.581,4.681,12.869c0,0,3.513-12.869,6.438-12.869" transform="translate(-118.859 -210.196)" opacity="0.05"></path><path id="Path_771" data-name="Path 771" d="M295.084,419.4a1.756,1.756,0,0,1-2.874-1.352,1.718,1.718,0,0,1,.467-1.188c.227.2.449.423.67.632C293.954,418.111,294.529,418.743,295.084,419.4Z" transform="translate(-107.605 -199.27)" opacity="0.1"></path><circle id="Ellipse_141" data-name="Ellipse 141" cx="0.878" cy="0.878" r="0.878" transform="translate(274.692 337.54)" opacity="0.2"></circle><path id="Path_772" data-name="Path 772" d="M792.07,579.244s-10.032-3.4-14.859,5.439a16.122,16.122,0,0,0,.215,15.522c3.159,5.73,9.7,13.172,22.111,12.509,10.5-.562,13.993-8.573,14.941-16.028a16.463,16.463,0,0,0-21.865-17.626Z" transform="translate(-285.513 -258.647)" fill="#ffc600"></path><path id="Path_773" data-name="Path 773" d="M779.556,600.84a16.122,16.122,0,0,1-.215-15.522c4.827-8.845,14.859-5.439,14.859-5.439l.512-.183a16.317,16.317,0,0,1,11.788.265,16.325,16.325,0,0,0-13.9-1.327l-.512.183s-10.032-3.4-14.859,5.439a16.122,16.122,0,0,0,.215,15.522,23.986,23.986,0,0,0,11.372,10.74A24.861,24.861,0,0,1,779.556,600.84Z" transform="translate(-285.521 -258.486)" fill="#fff" opacity="0.1"></path><path id="Path_774" data-name="Path 774" d="M793.63,586.64s3.721,2.925,12.749,0" transform="translate(-292.254 -261.791)" opacity="0.2"></path><path id="Path_775" data-name="Path 775" d="M792.37,553s6.374,17.266,5.844,21.783l5.054-.531s-8.535-15.143-6.381-21.252Z" transform="translate(-291.79 -249.404)" fill="#6c63ff"></path><path id="Path_776" data-name="Path 776" d="M792.37,553s6.374,17.266,5.844,21.783l5.054-.531s-8.535-15.143-6.381-21.252Z" transform="translate(-291.79 -249.404)" fill="#ffc600"></path><path id="Path_777" data-name="Path 777" d="M822.07,553.783s-10.032-5.13-14.53-.891-5.18,15.074-5.18,15.074S818.729,570.221,822.07,553.783Z" transform="translate(-295.469 -248.746)" fill="#6c63ff"></path><path id="Path_778" data-name="Path 778" d="M822.07,553.783s-10.032-5.13-14.53-.891-5.18,15.074-5.18,15.074S818.729,570.221,822.07,553.783Z" transform="translate(-295.469 -248.746)" fill="#ffc600"></path><path id="Path_779" data-name="Path 779" d="M802.37,569.463s2.634-12.578,19.7-14.183" transform="translate(-295.472 -250.243)" fill="none" stroke="#000" stroke-miterlimit="10" stroke-width="1" opacity="0.2"></path><g id="Group_150" data-name="Group 150" transform="translate(362.796 -14.05)"><path id="Path_780" data-name="Path 780" d="M804.146,59.505v87.227c0,4.6-4.442,8.352-9.923,8.352H584.194c-5.482,0-9.924-3.749-9.924-8.352V59.505c0-4.611,4.442-9.311,9.924-9.311H794.223C799.713,50.194,804.146,54.894,804.146,59.505Z" transform="translate(-574.27 -50.194)" fill="#fff"></path><g id="Group_148" data-name="Group 148" transform="translate(0 0.009)"><path id="Path_781" data-name="Path 781" d="M804.146,60.115V84.467H574.27V60.124a9.915,9.915,0,0,1,9.915-9.915H794.223a9.9,9.9,0,0,1,9.923,9.888Z" transform="translate(-574.27 -50.209)" fill="#ffc600" opacity="0.1"></path><circle id="Ellipse_142" data-name="Ellipse 142" cx="6.637" cy="6.637" r="6.637" transform="translate(5.97 10.474)" fill="#ffc600"></circle><circle id="Ellipse_143" data-name="Ellipse 143" cx="6.637" cy="6.637" r="6.637" transform="translate(25.276 10.474)" fill="#ffc600"></circle><circle id="Ellipse_144" data-name="Ellipse 144" cx="6.637" cy="6.637" r="6.637" transform="translate(44.582 10.474)" fill="#ffc600"></circle></g><g id="Group_149" data-name="Group 149" transform="translate(100.883 51.548)"><rect id="Rectangle_581" data-name="Rectangle 581" width="109.403" height="3.865" fill="#ffc600"></rect><rect id="Rectangle_582" data-name="Rectangle 582" width="109.403" height="3.865" transform="translate(0 9.418)" fill="#ffc600" opacity="0.2"></rect><rect id="Rectangle_583" data-name="Rectangle 583" width="109.403" height="3.865" transform="translate(0 18.826)" fill="#ffc600" opacity="0.2"></rect><rect id="Rectangle_584" data-name="Rectangle 584" width="109.403" height="3.865" transform="translate(0 28.235)" fill="#ffc600" opacity="0.2"></rect></g></g><g id="Group_151" data-name="Group 151" transform="translate(110.791 -124.264)"><path id="Path_782" data-name="Path 782" d="M331.728-3.05,315.441-31.4H175.37v-92.867H359.841V-31.4H331.728Z" transform="translate(-175.37 124.264)" fill="#fff"></path><rect id="Rectangle_585" data-name="Rectangle 585" width="80.232" height="7.581" transform="translate(39.8 24.006)" fill="#ffc600"></rect><rect id="Rectangle_586" data-name="Rectangle 586" width="80.232" height="7.581" transform="translate(39.8 56.583)" fill="#ffc600" opacity="0.2"></rect><rect id="Rectangle_587" data-name="Rectangle 587" width="122.815" height="7.581" transform="translate(39.8 41.809)" fill="#ffc600" opacity="0.2"></rect><path id="Path_783" data-name="Path 783" d="M331.728-2.05,315.441-30.4H175.37v-92.867H359.841V-30.4H331.728ZM176-31.029H315.808L331.1-4.413V-31.029h28.113v-91.6H176Z" transform="translate(-175.37 123.896)" opacity="0.1"></path><circle id="Ellipse_145" data-name="Ellipse 145" cx="10.424" cy="10.424" r="10.424" transform="translate(10.424 17.373)" fill="#ffc600"></circle><circle id="Ellipse_146" data-name="Ellipse 146" cx="3.79" cy="3.79" r="3.79" transform="translate(147.513 67.281)" fill="#ffc600" opacity="0.2"></circle><circle id="Ellipse_147" data-name="Ellipse 147" cx="3.79" cy="3.79" r="3.79" transform="translate(156.989 67.281)" fill="#ffc600" opacity="0.2"></circle><circle id="Ellipse_148" data-name="Ellipse 148" cx="3.79" cy="3.79" r="3.79" transform="translate(166.466 67.281)" fill="#ffc600" opacity="0.2"></circle></g></g></svg> 