<?xml version="1.0" encoding="UTF-8"?> <svg xmlns="http://www.w3.org/2000/svg" xmlns:xlink="http://www.w3.org/1999/xlink" width="647.712" height="539.89" viewBox="0 0 647.712 539.89"><defs><linearGradient id="linear-gradient" x1="0.5" y1="1" x2="0.5" gradientUnits="objectBoundingBox"><stop offset="0" stop-color="gray" stop-opacity="0.251"></stop><stop offset="0.54" stop-color="gray" stop-opacity="0.122"></stop><stop offset="1" stop-color="gray" stop-opacity="0.102"></stop></linearGradient></defs><g id="Question-Ans" transform="translate(-0.004 0)"><ellipse id="Ellipse_133" data-name="Ellipse 133" cx="66.172" cy="6.523" rx="66.172" ry="6.523" transform="translate(394.184 526.844)" fill="#ffc600" opacity="0.1"></ellipse><path id="Path_663" data-name="Path 663" d="M381.629,41.244c29.144-10.833,64.624-1.516,94.923,12.072C571.714,96,641.042,177.034,696.123,259.588c19.943,29.892,38.887,61.1,46.384,94.471,15.266,67.921-24.55,138.236-92.265,162.876-23.027,8.388-48.326,11.827-73.663,13.743-45.055,3.413-91.7,2.058-136.4-10.581-31.873-9.033-62.024-23.563-90.942-39.616-80.761-44.855-154.514-103.1-207.621-174.258-23.292-31.209-43-66.392-43.564-102.4s22.9-72.192,61.508-78.315c15.962-2.529,32.848.1,49.32,2.813,24.253,3.994,48.836,8.194,72.812,6.452,24.769-1.813,56.985-11.491,61.5-35.138C347.975,74.246,352.524,52.064,381.629,41.244Z" transform="translate(-98.04 -33.347)" fill="#f7f9fd"></path><path id="Path_664" data-name="Path 664" d="M341.736,800.4s31.138-1.878,27.466,19.943a5.315,5.315,0,0,1-2.768,5.607s-.052-1.619-3.194-1.071a14.059,14.059,0,0,1-3.381.168,7.051,7.051,0,0,1-4.136-1.71h0s-8.755-3.613-12.156-17.924c0,0-2.523-3.116-2.42-3.923l5.252,2.245s-1.794,3.794-.381,6.942c0,0,.168-6.8,1.181-6.646.2.032,2.729,1.29,2.729,1.29s-3.091,6.6-.761,11.4c0,0-.884-8.136,1.723-10.923l3.7,2.161s-3.613,6.82-1.161,12.382c0,0-.645-8.536,1.936-11.859l3.355,2.581s-3.394,6.723-1.323,11.343c0,0,.265-9.943,2.045-10.691,0,0,2.936,2.581,3.381,3.652,0,0-2.323,4.878-.884,7.452,0,0,.884-6.62,1.613-6.652,0,0,2.916,4.387,3.226,7.394a15.967,15.967,0,0,0-2.523-7.813,8.807,8.807,0,0,1,4.478,2.316s-.458-3.1-5.194-3.374c0,0-2.413-3.323-3.065-3.529,0,0,4.716-.394,7.575.878,0,0-2.516-2.929-8.439-1.6l-3.31-2.7s6.213-.852,8.839.09c0,0-3.026-2.581-9.73-.7l-3.6-2.155s5.291-1.142,8.446-.729c0,0-3.329-1.794-9.5.148l-2.581-1.155s3.871-.761,5.013-.884,1.194-.432,1.194-.432a13.433,13.433,0,0,0-7.284.807S341.639,800.772,341.736,800.4Z" transform="translate(-184.29 -304.356)" fill="#ffc600"></path><ellipse id="Ellipse_134" data-name="Ellipse 134" cx="22.04" cy="3.723" rx="22.04" ry="3.723" transform="translate(156.851 519.772)" fill="#ffc600" opacity="0.1"></ellipse><path id="Path_665" data-name="Path 665" d="M277.221,777.657s17.556-1.058,15.485,11.246a2.987,2.987,0,0,1-1.555,3.161s-.032-.91-1.8-.6a7.827,7.827,0,0,1-1.9.09,3.91,3.91,0,0,1-2.336-.961h0s-4.929-2.045-6.865-10.11c0,0-1.419-1.761-1.368-2.213l2.968,1.29a5.332,5.332,0,0,0-.219,3.916s.1-3.839.645-3.749c.116,0,1.542.742,1.542.742s-1.742,3.723-.426,6.452c0,0-.5-4.587.968-6.162l2.084,1.219s-2.032,3.871-.645,6.981c0,0-.355-4.813,1.09-6.684l1.89,1.471s-1.936,3.787-.742,6.394c0,0,.148-5.607,1.155-6.026a11.5,11.5,0,0,1,1.9,2.058s-1.29,2.749-.5,4.2c0,0,.5-3.729.91-3.749a12.335,12.335,0,0,1,1.813,4.168,9.032,9.032,0,0,0-1.419-4.407,4.923,4.923,0,0,1,2.523,1.29s-.252-1.749-2.929-1.9a11.406,11.406,0,0,0-1.723-1.987,10.789,10.789,0,0,1,4.271.49s-1.419-1.652-4.762-.9l-1.865-1.523s3.5-.477,4.987.052c0,0-1.71-1.458-5.491-.394l-2.026-1.219a18.439,18.439,0,0,1,4.755-.406s-1.871-1.013-5.355.084l-1.452-.645s2.187-.432,2.826-.5.677-.245.677-.245a7.606,7.606,0,0,0-4.11.458S277.17,777.87,277.221,777.657Z" transform="translate(-161.489 -296.294)" fill="#ffc600"></path><ellipse id="Ellipse_135" data-name="Ellipse 135" cx="12.427" cy="2.103" rx="12.427" ry="2.103" transform="translate(115.397 494.732)" fill="#ffc600" opacity="0.1"></ellipse><path id="Path_666" data-name="Path 666" d="M946.606,795.984s21.195-1.29,18.711,13.549a3.639,3.639,0,0,1-1.884,3.82s-.039-1.1-2.174-.729a9.556,9.556,0,0,1-2.3.11,4.744,4.744,0,0,1-2.813-1.161h0s-5.962-2.458-8.278-12.2c0,0-1.716-2.123-1.645-2.665l3.574,1.523s-1.219,2.581-.258,4.729c0,0,.116-4.633.8-4.516.142,0,1.858.89,1.858.89s-2.1,4.516-.516,7.742c0,0-.6-5.536,1.174-7.433l2.516,1.465s-2.458,4.646-.787,8.433c0,0-.432-5.807,1.29-8.072l2.284,1.781s-2.31,4.575-.9,7.742c0,0,.187-6.762,1.4-7.278a13.913,13.913,0,0,1,2.3,2.484s-1.581,3.323-.6,5.078c0,0,.6-4.516,1.1-4.516,0,0,1.987,2.987,2.194,5.033a10.846,10.846,0,0,0-1.71-5.317,5.994,5.994,0,0,1,3.045,1.574s-.31-2.11-3.542-2.3a13.75,13.75,0,0,0-2.078-2.4,13.048,13.048,0,0,1,5.162.594s-1.716-1.987-5.749-1.084l-2.252-1.839s4.226-.581,6.02.058c0,0-2.065-1.761-6.626-.477l-2.452-1.465a22.336,22.336,0,0,1,5.749-.5s-2.265-1.219-6.452.1L951,797.959s2.639-.523,3.413-.6.813-.3.813-.3a9.163,9.163,0,0,0-4.955.548S946.541,796.23,946.606,795.984Z" transform="translate(-398.965 -302.795)" fill="#ffc600"></path><ellipse id="Ellipse_136" data-name="Ellipse 136" cx="15.001" cy="2.536" rx="15.001" ry="2.536" transform="translate(547.234 509.346)" fill="#ffc600" opacity="0.1"></ellipse><path id="Path_667" data-name="Path 667" d="M829.732,497.1a46.028,46.028,0,0,1-.7-6.878c0-2.768-3.761-5.22-3.761-5.22s-2.323-5.375-3.871-6.168-6.33-7.826-6.33-7.826a6.394,6.394,0,0,0-1.439-3.794,54.533,54.533,0,0,1-3.916-5.91c-.645-.787-.323-1.342-1.29-5.93-.052-.239-.11-.471-.181-.69a.9.9,0,0,0-.1-.3,7.743,7.743,0,0,0,1.826-8.02,3.225,3.225,0,0,0-.916-1.419c-1.09-.89-2.832-.523-3.955-1.368l1.194-5.278c.284-1.29.432-2.923-.7-3.62a5.863,5.863,0,0,0-1.329-.445c-1.936-.645-3.058-2.69-3.562-4.658a15.961,15.961,0,0,1-.387-5.807c.219-1.871.768-3.691.968-5.568a15.292,15.292,0,0,0-2.368-9.9,7.618,7.618,0,0,0-3.129-2.955c-1.194-.536-2.581-.645-3.7-1.29-2.4-1.529-2.278-5.162-4.194-7.246s-5.31-2.078-8.1-1.361-5.575,1.936-8.439,1.632c-1.845-.206-3.574-1.045-5.426-1.239a5.714,5.714,0,0,0-1.587.071v-.058a3.442,3.442,0,0,0-2.949,2.3,3.513,3.513,0,0,0-.09.942c0,.755.181,1.542.194,2.265a2.155,2.155,0,0,1-.523,1.594c-.368.394-.91.6-1.29,1.007a1.613,1.613,0,0,0-.471,1.187c0,1.148,1.432,2.161,2.394,2.626h.039c-.258.258-.516.529-.755.807a16.994,16.994,0,0,0-4.271,11.285,17.227,17.227,0,0,0,10.478,15.73l-.135.419a24.07,24.07,0,0,1-.948,2.439,4.832,4.832,0,0,0-4.052.452c-1.845,1.29-5.452,1.187-6.413.948s-10.969-1.5-11.775-1.187-2.4-1.1-3.439.794-1.523,2.923-2.581,3.4-2.884,1.974-2.639,2.29-2.645,2.213-2.645,2.213-2.484,2.581-3.923,2.923a23.034,23.034,0,0,0-4.484,2.3l-3.529,2.762s-2.639.4-1.839-1.419-1.445-4.11-1.445-4.11-4.484-9.091-4.484-10.969-3.684-9.885-3.684-9.885l-.452-.045-.206-.587c-.677-1.9-1.555-4.239-2.226-5.607-1.29-2.613-2.084-2.884-2.084-2.884s-15.537-11.665-25.628-8.11S696.9,425.886,699.458,427c.9.387,1.542,1.639,1.994,3.1a13.278,13.278,0,0,0-5.517,4.962s6.168,13.672,6.33,17.072,4.246,12.9,4.246,12.9,1.523,7.039,9.768,6.639c0,0,11.375,2.09,13.859,0s4.723-3.729,5.93-3.968a4.678,4.678,0,0,0,2.239-1.581s-3.762,23.711-5.607,25.77-18.15,28.68-12.3,33.441a116.936,116.936,0,0,0,14.653,9.678c.5.245,1.987-2.239,4.116-4v1.374c.039,9.472,1.29,23.873,3.02,27.1,2.581,4.742,1.523,13.911,1.523,13.911a10.969,10.969,0,0,0,4.329,1.039c.077.31.168.645.252.968,1.413,5.336,3.7,13.588,4.871,15.782,1.761,3.323,3.039,13.84,3.039,13.84s1.045,10.323.645,11.775c-.155.548.523,4.846,1.587,10.323h0c-.645,7.413-1.871,21.7-2.078,26.873h0v.374a1.626,1.626,0,0,1,0,.174v.316h0a4.829,4.829,0,0,0,.039.974,3.16,3.16,0,0,1-.11,1.471,25.692,25.692,0,0,1-1.736,4.142,19.726,19.726,0,0,0-.774,2,3.615,3.615,0,0,0-1.871,2.658c-.8,3.084-2,11.614-2,11.614s-.484,5.22-1.439,6.407-1.936,8.614,4.884,9.562,9.768-3.613,9.768-3.613l-.239-20.7v-.039a3.145,3.145,0,0,0,.355-.561v-.052c.045-.1.1-.2.142-.316l.058-.155.1-.252a.367.367,0,0,1,0-.09,13.678,13.678,0,0,0,.581-6.162v-.871a2.447,2.447,0,0,1,.039-.426v-.078l.039-.252v-.11a.476.476,0,0,1,.052-.258.282.282,0,0,1,0-.065c.064-.3.142-.645.226-.929V658.7l.1-.31h0c.1-.329.206-.645.323-.994v-.065a.9.9,0,0,1,.11-.3v-.039c.116-.316.239-.645.355-.916l.032-.084.1-.258.032-.077.245-.574h0l1.89,5.839s1.045,4.349.484,5.375.645,5.3,1.439,5.375l-.742,5.375a82.238,82.238,0,0,0-.716,8.936c-.052.342-.1.645-.142.852-.516,2.755.723,7.026.723,7.026,6.323,7.478,13.859.581,13.859.581s.877-3.955,0-4.742-.484-3.639-.484-3.639.4-7.039.477-12.175-4.2-9.678-4.2-9.678l-.239.213c-.781-2.013-1.671-4.362-1.484-5.413.323-1.819-.884-21.027-.884-21.027a113.916,113.916,0,0,0,.284-15.485h0c.1-.871.2-1.729.3-2.581.484-4.129.877-7.659,1.032-9.51h0v-.219c.039-.5.058-.852.052-1.019,0-.645,0-1.381.064-2.187.148-2.22.5-4.691.5-4.691l1.678-10.2a31.884,31.884,0,0,1,3.129-7.742l.219-.348h0c.071-.123.142-.258.219-.4l.032-.058c.071-.135.148-.277.219-.426l.032-.058c.258-.51.536-1.1.826-1.742,0-.052.045-.1.065-.148l.219-.49a.505.505,0,0,1,.084-.193c.032-.065.135-.329.206-.49a1.888,1.888,0,0,0,.084-.2c.084-.194.174-.394.258-.6l.123-.3c.058-.148.123-.3.187-.445l.155-.393c.045-.1.084-.194.123-.29l.174-.445c0-.065.058-.135.084-.2.458-1.142.9-2.271,1.29-3.3h0c.123-.323.245-.645.355-.929,4.1.252,6.891.478,6.891.478s1.29-9.246.878-15.33a56.956,56.956,0,0,1,1.013-12.259c.058-.316.11-.6.161-.858l.11.09c2.007,1.581,3.445-3.639,3.445-3.639s-.542-4.871-1.29-10.775l-.077-.587a30.31,30.31,0,0,0,3.5.536s.645-.058,1.529-.168a42.329,42.329,0,0,0,7.7,3.484l4.265-7.872a32.029,32.029,0,0,1,2.807-4.665c1.29-1.581,5.846-6.639,5.768-7.588s1.523-6.407,3.123-8.859S829.809,497.491,829.732,497.1ZM811.95,503.1c-1.684.71-3.284,4.665-3.362,5.852s-1.845,6.4-3.684,7.033c-1.7.581-4.936,3.562-5.452,4.039-.529.045-1.129.116-1.755.219-.7-4.987-1.4-9.117-1.845-9.949-1.29-2.374,1.413-9.962,1.413-9.962s.265-7.665,1.936-9.485,1.29-6.407,1.29-6.407.4-1.9.561-2.761,2.381,0,2.4,0h0s4.323,2.368,4.968,5.923,5.368,9.723,5.368,9.723-.723,2.136,0,3.226S813.634,502.395,811.95,503.1Z" transform="translate(-303.209 -160.545)" fill="url(#linear-gradient)"></path><path id="Path_668" data-name="Path 668" d="M707,454.413a12.9,12.9,0,0,1,12.9-6.078v9.233H714.3l-4.387-1.11Z" transform="translate(-314.093 -179.413)" fill="#2f3c43"></path><path id="Path_669" data-name="Path 669" d="M707,454.413a12.9,12.9,0,0,1,12.9-6.078v9.233H714.3l-4.387-1.11Z" transform="translate(-314.093 -179.413)" fill="#263238" opacity="0.1"></path><path id="Path_670" data-name="Path 670" d="M709.7,441.026l-6.871,4.813s-.058-.961-.232-2.278c-.342-2.49-1.11-6.226-2.768-6.949-2.523-1.11-30.609-11.678-20.647-15.233s25.247,8.1,25.247,8.1.787.271,2.045,2.871c.645,1.368,1.529,3.7,2.194,5.6C709.278,439.664,709.7,441.026,709.7,441.026Z" transform="translate(-303.467 -169.658)" fill="#ffb8b8"></path><path id="Path_671" data-name="Path 671" d="M713.658,431.878l.781-.368,2.194,2.5-1.794,3.826-3.058-1.226.71-3.058Z" transform="translate(-252.533 -153.097)" fill="#4c4981"></path><path id="Path_672" data-name="Path 672" d="M792.869,811s-1.974-.232-2.762,2.845-1.974,11.614-1.974,11.614-.471,5.207-1.419,6.394-1.89,8.6,4.813,9.543,9.626-3.607,9.626-3.607l-.239-20.692Z" transform="translate(-342.139 -308.13)" fill="#444053"></path><path id="Path_673" data-name="Path 673" d="M827.193,812.44s4.22,4.516,4.142,9.639-.477,12.149-.477,12.149-.387,2.845.477,3.632,0,4.736,0,4.736-7.42,6.884-13.653-.581c0,0-1.213-4.265-.71-7.013s1.91-15.1,1.91-15.1Z" transform="translate(-353.067 -308.643)" fill="#444053"></path><path id="Path_674" data-name="Path 674" d="M827.612,663.822s-4.258,11.911-6.078,14.672a31.585,31.585,0,0,0-3.071,7.742L816.8,696.412a56.729,56.729,0,0,0-.555,6.865c.077,2.29-4.1,35.661-4.1,35.661l-6.626,8.446s-2.916,5.917-2.445,8.388-.316,6.394-1.291,7.575c0,0-.155,7.742-.394,9.465s.871,6.633,0,7.5-12.465.477-12.782-.948,1.42-8.285,1.42-8.285l1.026-6.626s2.052-3.626,1.581-4.813.865-3.942.942-4.181,2.213-4.1,1.819-5.6,2.484-33.331,2.484-33.331L806,659.48Z" transform="translate(-343.034 -254.374)" fill="#ffb8b8"></path><path id="Path_675" data-name="Path 675" d="M827.612,663.829s-.645,1.794-1.529,4.149c-1.407,3.716-3.433,8.833-4.549,10.523a32,32,0,0,0-3.078,7.742L816.8,696.425a57.226,57.226,0,0,0-.549,6.865c0,.9-.606,6.665-1.381,13.3-1.194,10.149-2.723,22.356-2.723,22.356L805.52,747.4s-.335.645-.755,1.665c-.832,1.936-2.007,5.078-1.69,6.7.471,2.445-.316,6.388-1.291,7.575,0,0-.161,7.742-.394,9.465s.871,6.626,0,7.5-12.465.477-12.782-.942,1.42-8.284,1.42-8.284l1.026-6.633s2.052-3.626,1.574-4.813.871-3.942.949-4.181,2.213-4.1,1.819-5.6c-.3-1.142,1.29-19.834,2.032-28.7.252-2.787.413-4.6.413-4.6l6.988-49.074.568-3.955.568-4.013Z" transform="translate(-343.034 -254.381)" opacity="0.1"></path><path id="Path_676" data-name="Path 676" d="M819.241,784.638c.071.871-11.13,2.136-12.73,1.187s0-12.7,0-12.7l.729-5.362c-.781-.084-1.968-4.342-1.419-5.368s-.471-5.362-.471-5.362l-1.858-5.807-1.135-3.555c-1.845-4.071-4.517-15.685-6.175-24.357-1.045-5.445-1.71-9.736-1.561-10.285.394-1.419-.645-11.756-.645-11.756s-1.291-10.5-2.994-13.807c-1.155-2.194-3.407-10.433-4.8-15.749-.71-2.729-1.2-4.691-1.2-4.691s11.923-1,19.156-1.348c3.323-.161,5.659-.181,5.387.09s-.342,1.716-.329,3.807c.032,5.413.787,14.937,1.587,17.5,1.1,3.549,2.207,14.194,1.735,15.227s-.316,7.891-.316,7.891a35.489,35.489,0,0,1,1.394,8.562,115.733,115.733,0,0,1-.271,15.414s1.181,19.176.865,20.989,2.523,7.5,2.523,8.6.787,8.6.787,8.6S819.189,783.774,819.241,784.638Z" transform="translate(-341.76 -256.53)" fill="#ffb8b8"></path><path id="Path_677" data-name="Path 677" d="M831.459,474.554l-1.355,1.465-.884.955-5.162,5.549-13.336,1.5-7.1-1.9-1.755-.471s0-3.562.316-7.833c.452-5.478,1.529-12.13,4.1-13.943a10.252,10.252,0,0,0,3-3.8,21.413,21.413,0,0,0,1.29-3.187c.052-.142.09-.277.135-.419a35.64,35.64,0,0,0,1.252-5.852s1.7-.942,4.071-2.039c6.175-2.884,16.84-6.865,13.13,2.039a34.843,34.843,0,0,0-1.394,4c-.058.2-.109.4-.155.594-1.239,4.955-.419,7.962.5,9.62h0a6.011,6.011,0,0,0,.536.819,4.3,4.3,0,0,0,.9.91l1.536,9.749.129.807Z" transform="translate(-347.752 -176.913)" fill="#ffb8b8"></path><path id="Path_678" data-name="Path 678" d="M833.968,447.361c-.7,1.69.342-1.381,0,0-2.813,2-9.439,7.7-13.162,7.7-2.516,0-3.271-.458-5.426-1.432a35.185,35.185,0,0,0,1.387-6.265S839.1,435.051,833.968,447.361Z" transform="translate(-352.546 -177.174)" opacity="0.1"></path><path id="Path_679" data-name="Path 679" d="M834.082,424.841a17.214,17.214,0,0,1-15.4,17.1c-.594.058-1.194.1-1.8.1a17.2,17.2,0,1,1,17.2-17.2Z" transform="translate(-346.975 -165.023)" fill="#ffb8b8"></path><path id="Path_680" data-name="Path 680" d="M833.374,529.085l-2.452,6.394s-1.994.084-5.1.181c-10.5.336-33.628.761-34.661-1.936a6.863,6.863,0,0,1-.361-2.123c-.136-4.11,1.781-10.42,1.781-10.42s1.1-12.627,1.1-13.175-.948-9.394-.948-9.394l1.9-7.1,5.284-3.71s2.368,3.633,3.787,3.942a9.842,9.842,0,0,1,3.316,2.058s4.652,2.839,6.155,1.258,13.175-8.523,13.175-8.523l6.155,6.788Z" transform="translate(-343.821 -193.016)" opacity="0.1"></path><path id="Path_681" data-name="Path 681" d="M833.384,530.605l-2.452,6.388s-1.994.09-5.1.187h-.3c-1.342.045-2.878.09-4.516.123-8.343.194-19.834.245-25.841-.645-2.258-.323-3.736-.787-3.981-1.419a5.69,5.69,0,0,1-.284-1.174c-.039-.3-.064-.645-.077-.948-.135-4.11,1.781-10.42,1.781-10.42s1.1-12.627,1.1-13.175-.948-9.394-.948-9.394l1.9-7.1,3.633-2.542,1.652-1.161a24.741,24.741,0,0,0,1.813,2.387,4.825,4.825,0,0,0,1.974,1.555,9.874,9.874,0,0,1,3.316,2.058s4.652,2.839,6.155,1.258c1.142-1.206,8.239-5.549,11.517-7.53,1.006-.613,1.658-.994,1.658-.994l.826.916,5.329,5.871Z" transform="translate(-343.832 -193.555)" fill="#fff"></path><path id="Path_682" data-name="Path 682" d="M723.744,450.508l-6.871,4.813s-.058-.961-.232-2.278a13.909,13.909,0,0,0,6.052-5.613C723.324,449.146,723.744,450.508,723.744,450.508Z" transform="translate(-317.513 -179.14)" opacity="0.1"></path><path id="Path_683" data-name="Path 683" d="M744.446,467.192l-1.5-.4s-2.452,2.581-3.871,2.923A22.591,22.591,0,0,0,734.665,472l-3.478,2.762s-2.581.4-1.813-1.419-1.419-4.1-1.419-4.1-4.42-9.072-4.42-10.969-3.652-9.859-3.652-9.859-4.581,8.917-12.943,6.078c0,0,6.078,13.646,6.233,17.04s4.181,12.859,4.181,12.859,1.5,7.026,9.626,6.633c0,0,11.207,2.084,13.653,0s4.652-3.723,5.807-3.962a4.789,4.789,0,0,0,2.207-1.574V476.1Z" transform="translate(-314.072 -179.488)" fill="#263238"></path><path id="Path_684" data-name="Path 684" d="M743.3,491.33s1.974,7.342.71,8.13Z" transform="translate(-326.972 -194.715)" fill="#07090a" opacity="0.1"></path><path id="Path_685" data-name="Path 685" d="M825.822,561.908c-10.5.336-33.628.755-34.661-1.936a6.861,6.861,0,0,1-.361-2.123l34.293,1.807Z" transform="translate(-343.825 -218.316)" opacity="0.1"></path><path id="Path_686" data-name="Path 686" d="M826.345,663.822s-.645,1.794-1.529,4.149c-4.355-.265-10.123-.542-15.6-.581-1.936,0-3.832,0-5.626.065a42.385,42.385,0,0,0-9.194,1.019,24.382,24.382,0,0,1-8.194,1.058c-.71-2.729-1.2-4.691-1.2-4.691s11.923-1,19.156-1.349l.568-4.013Z" transform="translate(-341.767 -254.374)" opacity="0.1"></path><path id="Path_687" data-name="Path 687" d="M831.3,599.357l-1.342,2.839s-.187.845-.426,2.187a55.919,55.919,0,0,0-.994,12.259c.394,6.078-.871,15.3-.871,15.3s-29.034-2.445-37.551,0-12.711,0-12.711,0,1.032-9.149-1.5-13.885c-1.723-3.226-2.936-17.627-2.974-27.1,0-4.368.219-7.678.768-8.349,1.736-2.129,9.149-23.434,9.149-23.434l1.69.09,4.516.239,25.679,1.355,4.033.213.426,1.29Z" transform="translate(-337.485 -218.788)" fill="#263238"></path><path id="Path_688" data-name="Path 688" d="M876.68,600.589l.239,2.529s-12.717-4.142-12.072-9.233,0-4.516,0-4.516l10.22.865Z" transform="translate(-370.088 -229.492)" fill="#2e3b41"></path><path id="Path_689" data-name="Path 689" d="M876.68,600.589l.239,2.529s-12.717-4.142-12.072-9.233,0-4.516,0-4.516l10.22.865Z" transform="translate(-370.088 -229.492)" opacity="0.1"></path><path id="Path_690" data-name="Path 690" d="M755.389,493.362a11.33,11.33,0,0,0,4.478,2.329,2.916,2.916,0,0,1-1.29-.645c-.91-.645-1.774-1.348-2.652-2.032a8.323,8.323,0,0,0-2.465-1.7A13.593,13.593,0,0,0,755.389,493.362Z" transform="translate(-330.577 -194.708)" fill="#07090a" opacity="0.1"></path><path id="Path_691" data-name="Path 691" d="M754.825,497.907a5.693,5.693,0,0,1,.981,1.555,9.4,9.4,0,0,1-.071,4.884l-2.039-4.916c-.355-.839-.71-1.678-1.135-2.478-.187-.342-1.361-1.768-1.226-2.065C751.7,494.048,754.444,497.436,754.825,497.907Z" transform="translate(-329.819 -195.93)" fill="#07090a" opacity="0.1"></path><path id="Path_692" data-name="Path 692" d="M840.428,540.886a6.569,6.569,0,0,0,3.71-1.736c-2.1.265-4.084,1.09-6.149,1.523a9.137,9.137,0,0,1-5.729-.529A14.09,14.09,0,0,0,840.428,540.886Z" transform="translate(-358.534 -211.682)" opacity="0.1"></path><path id="Path_693" data-name="Path 693" d="M830.075,516.019a1.439,1.439,0,0,1-1.065-.265q-2.362-1.355-4.658-2.826a30.931,30.931,0,0,1-4.562-3.149C822.919,512.606,825.836,514.993,830.075,516.019Z" transform="translate(-354.11 -201.261)" opacity="0.1"></path><path id="Path_694" data-name="Path 694" d="M840.151,544.533a9.82,9.82,0,0,0,2.465-.2A3.3,3.3,0,0,0,844.641,543a1.162,1.162,0,0,0-.858.136,14.478,14.478,0,0,1-7.923.948A11.443,11.443,0,0,0,840.151,544.533Z" transform="translate(-359.812 -213.038)" opacity="0.1"></path><path id="Path_695" data-name="Path 695" d="M808.307,601.794a25.874,25.874,0,0,1-5.039.987,30.464,30.464,0,0,1-3.987-.077l-6.452-.407-3.226-.206c-.381,0-1.936,0-1.168-.768.387-.374,2.542-.135,3.1-.155q1.606-.052,3.226-.058c2.136,0,4.278,0,6.413.129C803.565,601.355,805.92,601.536,808.307,601.794Z" transform="translate(-342.911 -233.665)" opacity="0.1"></path><path id="Path_696" data-name="Path 696" d="M799.632,606.79c-1.1-.045-2.51.606-3.639.748a24.207,24.207,0,0,1-3.807.148,21.228,21.228,0,0,1-7.336-1.5C789.773,606.442,794.709,606.59,799.632,606.79Z" transform="translate(-341.714 -235.467)" opacity="0.1"></path><path id="Path_697" data-name="Path 697" d="M785.1,612.246a10.547,10.547,0,0,1,1.407.387c2.723.774,5.62.09,8.388-.594a4.921,4.921,0,0,1-3.181,1.768,14.749,14.749,0,0,1-6.194.226c-.645-.129-2.265-.361-2.581-1.032C782.414,612.014,784.5,612.15,785.1,612.246Z" transform="translate(-341.007 -237.542)" opacity="0.1"></path><path id="Path_698" data-name="Path 698" d="M807.768,619.469a21.052,21.052,0,0,1,2.413.645c3.065.761,6.246-.284,9.323-.987a43.408,43.408,0,0,1,11.285-1.045,11.171,11.171,0,0,0-2.42.794c-.871.265-1.755.51-2.639.729-1.736.426-3.5.774-5.271,1.026a54.2,54.2,0,0,1-10.82.471c-1.652-.09-4.516.077-5.929-.755a6.536,6.536,0,0,1,4.058-.877Z" transform="translate(-348.405 -239.675)" opacity="0.1"></path><path id="Path_699" data-name="Path 699" d="M798,467.411s.155,7.265-1.026,10.581c-.374,1.032-.955,2.936-1.587,5.071-.69,2.368-1.445,5.02-2.026,7.1s-.968,3.471-.968,3.471-2.665,21.7-3.355,32.047a2.519,2.519,0,0,1-.039.542c-.039.581-.1,1.187-.2,1.813-1.536,10.272-10.394,26.111-13.369,27.376a8.851,8.851,0,0,0-2.5,1.723c0-4.368.219-7.678.768-8.349,1.736-2.129,9.149-23.434,9.149-23.434l1.69.09c-.039-.3-.064-.645-.077-.948-.135-4.11,1.781-10.42,1.781-10.42s1.1-12.627,1.1-13.175-.948-9.394-.948-9.394l1.9-7.1,3.633-2.542c.452-5.478,1.529-12.13,4.1-13.943a10.253,10.253,0,0,0,3-3.8c.51.071-.419-.381-.419-.381Z" transform="translate(-337.485 -184.927)" opacity="0.1"></path><path id="Path_700" data-name="Path 700" d="M788.558,462.981a4.7,4.7,0,0,0-3.994.452c-1.819,1.29-5.368,1.181-6.317.948s-10.807-1.5-11.614-1.187-2.368-1.1-3.394.794-1.5,2.916-2.523,3.387-2.845,1.974-2.581,2.29-2.581,2.207-2.581,2.207l5.755,18.711s-3.71,23.666-5.523,25.718-17.911,28.641-12.149,33.377a114.658,114.658,0,0,0,14.44,9.678c.645.316,2.916-3.942,6.071-5.284s12.943-19.1,13.549-29.2,3.394-32.583,3.394-32.583,3.394-12.311,4.575-15.627,1.026-10.581,1.026-10.581Z" transform="translate(-326.653 -184.568)" fill="#263238"></path><path id="Path_701" data-name="Path 701" d="M854.162,568.593l-1.342,2.839s-.187.845-.426,2.187a1.207,1.207,0,0,1-.645-.29c-1.974-1.581-13.549-13.491-14.124-24.066-.406-7.8-.213-14.523-.084-17.517.039-.942.078-1.51.078-1.632h0s8.994-10.891,7.968-14.749-3.394-24.518-3.394-24.518l-.349-2.71-.6-4.581-1.432-11.085,1.484.348a4.3,4.3,0,0,0,.9.91l1.536,9.749,5.329,5.871.871,35.745-2.452,6.388s-1.994.09-5.1.187h-.3Z" transform="translate(-360.351 -188.024)" opacity="0.1"></path><path id="Path_702" data-name="Path 702" d="M859.605,509.33s-2.207-.871-2.361,0-.555,2.755-.555,2.755.394,4.581-1.29,6.394-1.936,9.465-1.936,9.465-2.658,7.575-1.4,9.943c.458.858,1.168,5.162,1.878,10.323.452,3.226.9,6.768,1.291,10.007.716,5.884,1.252,10.756,1.252,10.756s-1.426,5.207-3.4,3.626-13.549-13.491-14.117-24.066c-.387-7.426-.232-13.878-.1-17.059.052-1.348.1-2.11.1-2.11s8.994-10.891,7.968-14.756-3.394-24.518-3.394-24.518l-.413-3.194-.445-3.432-.1-.755-1.426-10.969h0c.252.058,9.1,2.058,10.272,3.226s8.388,2.839,8.388,2.839a6.31,6.31,0,0,1,4.478,4.594c.071.219.122.452.174.69.948,4.581.645,5.129,1.29,5.923S859.605,509.33,859.605,509.33Z" transform="translate(-360.826 -187.765)" fill="#263238"></path><path id="Path_703" data-name="Path 703" d="M860.043,600.257c-3.226-.645-8.014-2.136-7.9-5.426.1-3.078,3.8-4.187,6.607-4.581C859.2,593.463,859.643,597.018,860.043,600.257Z" transform="translate(-365.587 -229.812)" opacity="0.1"></path><path id="Path_704" data-name="Path 704" d="M870.309,598.235c-.129.277-.645.516-1.381.729a37.212,37.212,0,0,1-5.246.858s-10.968-.871-10.814-5.846c.116-3.568,5.071-4.516,7.852-4.729a18.1,18.1,0,0,1,1.852-.077S870.78,597.215,870.309,598.235Z" transform="translate(-365.846 -229.428)" fill="#ffb8b8"></path><path id="Path_705" data-name="Path 705" d="M874.3,598.235c-.129.277-.645.516-1.381.729-2.858-3.826-6.846-8.736-8.8-9.168l.594-.548a18.1,18.1,0,0,1,1.852-.077S874.772,597.215,874.3,598.235Z" transform="translate(-369.838 -229.428)" opacity="0.1"></path><path id="Path_706" data-name="Path 706" d="M871.8,497.69l3.226.477a56.079,56.079,0,0,0,3.871,5.917,6.452,6.452,0,0,1,1.419,3.787s4.736,7.02,6.233,7.807,3.787,6.155,3.787,6.155,3.71,2.445,3.71,5.207a46.378,46.378,0,0,0,.71,6.865c.084.394-.548,5.291-2.129,7.742s-3.161,7.859-3.078,8.826-4.42,6-5.678,7.575a32.074,32.074,0,0,0-2.762,4.658l-4.181,7.891s-8.839-13.02-12.072-13.73c0,0,3.626-3.471,5.439-4.1s3.555-5.807,3.632-7.02,1.658-5.129,3.31-5.807,2.529-1.419,1.819-2.529,0-3.226,0-3.226-4.658-6.155-5.291-9.678-4.891-5.917-4.891-5.917l-2.445-6Z" transform="translate(-370.101 -196.972)" fill="#263238"></path><path id="Path_707" data-name="Path 707" d="M892.189,542.013a10.239,10.239,0,0,1,6.368-2.413,7.762,7.762,0,0,0-4.168,1.632,9.835,9.835,0,0,0-1.155,1.471c-.374.535-3.42,4.407-3.871,3.794C888.608,545.6,891.576,542.536,892.189,542.013Z" transform="translate(-378.751 -211.841)" opacity="0.1"></path><path id="Path_708" data-name="Path 708" d="M882.73,530.646a2.729,2.729,0,0,0,2.252-1.594,8.938,8.938,0,0,0,.7-2.8,41.755,41.755,0,0,1,.974-4.794,2.22,2.22,0,0,0-.136-1.936,6.548,6.548,0,0,0-.7-1.432c-.581.645-.748,2.149-.987,3.013-.3,1.071-.568,2.149-.826,3.226C883.878,524.845,882.807,530.646,882.73,530.646Z" transform="translate(-376.441 -204.21)" opacity="0.1"></path><path id="Path_709" data-name="Path 709" d="M852.749,459.611a6.642,6.642,0,0,1-1.09,1.123c-1.29,1.026-3,1.89-3.161,3.51a3.777,3.777,0,0,1-.194,1.555c-.413.71-1.426.645-2.232.51a3.87,3.87,0,0,1-1.89-.7c-.845-.723-.923-2.013-1.568-2.923a3.98,3.98,0,0,0-3.226-1.426c-1.206-.039-2.407.232-3.613.284a9.934,9.934,0,0,1-2.316-.155,7.328,7.328,0,0,1-.748-.155,9.635,9.635,0,0,1-1.574-.536,6.908,6.908,0,0,1-.768-.361,10.189,10.189,0,0,1-2.226-1.548,5.534,5.534,0,0,1-2.065-4.187c.058-.987.5-1.9.645-2.871.484-2.787-1.368-5.42-3.375-7.413-.8-.794-1.652-1.561-2.452-2.368a11.8,11.8,0,0,1-2.884-4.116,12.258,12.258,0,0,1-.516-5.162,35.606,35.606,0,0,0,.148-5.3c-.594-6.271-5.949-11.078-11.3-13.691l-.239-.123a17.195,17.195,0,1,1,23.131,25.163c-.058.2-.11.4-.155.594-1.239,4.955-.419,7.962.5,9.62h0c.252.058,9.1,2.058,10.272,3.226S848.239,455,848.239,455A6.31,6.31,0,0,1,852.749,459.611Z" transform="translate(-349.253 -165.029)" opacity="0.1"></path><path id="Path_710" data-name="Path 710" d="M804.083,404.8c.355-.406.89-.613,1.252-1.007,1.116-1.213,0-3.194.407-4.794.439-1.774,2.62-2.549,4.439-2.361s3.523,1.026,5.342,1.232c2.826.316,5.562-.91,8.317-1.626s6.084-.755,7.981,1.355,1.768,5.7,4.129,7.233c1.09.7,2.465.781,3.645,1.29a7.49,7.49,0,0,1,3.084,2.949,15.446,15.446,0,0,1,2.336,9.878c-.2,1.871-.742,3.691-.961,5.562a16.2,16.2,0,0,0,.387,5.807c.5,1.936,1.574,4.026,3.5,4.646a5.91,5.91,0,0,1,1.29.445c1.116.7.968,2.336.684,3.613l-1.149,5.3c1.1.839,2.82.477,3.871,1.361a3.226,3.226,0,0,1,.9,1.42,7.742,7.742,0,0,1-2.316,8.478c-1.29,1.026-3,1.89-3.162,3.5a3.639,3.639,0,0,1-.193,1.555c-.407.71-1.426.645-2.233.51a3.871,3.871,0,0,1-1.884-.7c-.852-.723-.923-2.013-1.568-2.923a3.993,3.993,0,0,0-3.226-1.426c-1.213-.039-2.407.232-3.62.29a10.7,10.7,0,0,1-7.607-2.749,5.554,5.554,0,0,1-2.071-4.194c.058-.981.5-1.9.645-2.871.477-2.781-1.368-5.42-3.374-7.413s-4.362-3.833-5.342-6.484c-1.226-3.284-.039-6.949-.368-10.433-.594-6.278-5.942-11.078-11.3-13.7C804.729,407.938,802.7,406.383,804.083,404.8Z" transform="translate(-348.372 -160.824)" fill="#2f2e41"></path><path id="Path_711" data-name="Path 711" d="M846.252,459.45c-.852-.729-.923-2.013-1.568-2.923a4.007,4.007,0,0,0-3.226-1.432c-1.213-.039-2.413.232-3.62.29a10.665,10.665,0,0,1-7.633-2.755,5.534,5.534,0,0,1-2.065-4.187c.058-.987.5-1.9.645-2.871.484-2.787-1.368-5.426-3.374-7.42s-4.355-3.833-5.342-6.484c-1.219-3.278,0-6.942-.361-10.433-.6-6.278-5.949-11.078-11.3-13.7-1.252-.613-3.284-2.168-1.9-3.749.348-.406.884-.613,1.245-1.007,1.116-1.206,0-3.194.413-4.787a2.631,2.631,0,0,1,.406-.884,3.441,3.441,0,0,0-2.91,2.3c-.393,1.6.71,3.581-.406,4.794-.361.394-.9.6-1.252,1-1.387,1.581.645,3.142,1.9,3.749,5.362,2.62,10.71,7.426,11.3,13.7.329,3.491-.858,7.155.368,10.439.981,2.645,3.336,4.516,5.342,6.484s3.871,4.626,3.374,7.413a24.764,24.764,0,0,0-.645,2.871,5.541,5.541,0,0,0,2.071,4.187,10.639,10.639,0,0,0,7.626,2.755c1.213-.058,2.407-.323,3.62-.29a4.013,4.013,0,0,1,3.226,1.432c.645.91.716,2.2,1.568,2.923a3.871,3.871,0,0,0,1.884.69c.806.148,1.826.2,2.232-.5a1.741,1.741,0,0,0,.181-.929,3.71,3.71,0,0,1-1.8-.677Z" transform="translate(-348.344 -161.287)" opacity="0.1"></path><path id="Path_712" data-name="Path 712" d="M664.267,291.428H619.638V247.451H664.3Zm-.645-66.308H620.283c0-68.34,64.959-64.347,64.959-107.582a43.087,43.087,0,0,0-43.306-42.893c-23.815,0-43.3,20.569-43.3,43.571H555.33A86.458,86.458,0,0,1,641.936,31.61c47.836,0,86.606,38.164,86.606,85.929,0,54.062-64.953,60.217-64.953,107.582Z" transform="translate(-260.282 -31.61)" fill="#ffc600"></path><path id="Path_713" data-name="Path 713" d="M363.754,377.1h-11.51V365.735h11.51Zm-.174-17.1H352.417c0-17.614,16.743-16.588,16.743-27.744A11.11,11.11,0,0,0,358,321.2a11.4,11.4,0,0,0-11.136,11.227H335.7a22.329,22.329,0,1,1,44.658-.174c-.035,13.936-16.778,15.524-16.778,27.731Z" transform="translate(-182.358 -130.383)" fill="#ffc600" opacity="0.1"></path><path id="Path_714" data-name="Path 714" d="M498.805,499.527h-11.51V488.191h11.51Zm-.168-17.091H487.475c0-17.621,16.743-16.588,16.743-27.744a11.1,11.1,0,0,0-11.162-11.059,11.4,11.4,0,0,0-11.194,11.239H470.7a22.329,22.329,0,1,1,44.658-.174C515.374,468.635,498.637,470.229,498.637,482.436Z" transform="translate(-230.255 -173.827)" fill="#ffc600" opacity="0.1"></path><path id="Path_715" data-name="Path 715" d="M585.21,292.98h-8.343v-8.2h8.343Zm-.123-12.394H577c0-12.762,12.136-12.02,12.136-20.1a8.052,8.052,0,0,0-8.091-8.014,8.259,8.259,0,0,0-8.091,8.143H564.86a16.182,16.182,0,1,1,32.364-.129C597.211,270.585,585.087,271.74,585.087,280.585Z" transform="translate(-263.663 -107.096)" fill="#ffc600" opacity="0.1"></path><path id="Path_716" data-name="Path 716" d="M810.9,322.68h-4.716v-4.646H810.9Zm-.071-7h-4.6c0-7.213,6.859-6.794,6.859-11.362a4.516,4.516,0,0,0-4.568-4.516,4.671,4.671,0,0,0-4.575,4.6H799.37a9.149,9.149,0,0,1,18.292-.071C817.687,310,810.829,310.68,810.829,315.68Z" transform="translate(-346.865 -125.221)" fill="#ffc600" opacity="0.1"></path><path id="Path_717" data-name="Path 717" d="M922.674,650.151h-4.716v-4.646h4.716Zm-.071-7h-4.575c0-7.22,6.865-6.794,6.865-11.362a4.549,4.549,0,0,0-4.574-4.516,4.665,4.665,0,0,0-4.575,4.6H911.17a9.149,9.149,0,0,1,18.292-.071c.026,5.7-6.833,6.349-6.833,11.349Z" transform="translate(-386.531 -241.406)" fill="#ffc600" opacity="0.1"></path></g></svg> 