<svg xmlns="http://www.w3.org/2000/svg" xmlns:xlink="http://www.w3.org/1999/xlink" viewBox="0 0 600 400"><defs><style>.cls-1{opacity:0.5;}.cls-2{fill:url(#linear-gradient);}.cls-3{fill:#f7f7f7;}.cls-4{fill:#1d62f0;}.cls-5{fill:#e0e0e0;}.cls-6{fill:url(#linear-gradient-2);}.cls-7{fill:#eee;}.cls-8{fill:#dfdfdf;}.cls-9{fill:url(#linear-gradient-3);}.cls-10{fill:#333;}.cls-11{fill:#fda57d;}.cls-12{opacity:0.04;}.cls-12,.cls-13{isolation:isolate;}.cls-13{opacity:0.05;}.cls-14{fill:none;}</style><linearGradient id="linear-gradient" x1="174.53" y1="-539.79" x2="174.53" y2="-327.79" gradientTransform="matrix(1, 0, 0, -1, 0, -268.6)" gradientUnits="userSpaceOnUse"><stop offset="0" stop-color="gray" stop-opacity="0.25"/><stop offset="0.54" stop-color="gray" stop-opacity="0.12"/><stop offset="1" stop-color="gray" stop-opacity="0.1"/></linearGradient><linearGradient id="linear-gradient-2" x1="281.31" y1="-626.01" x2="281.31" y2="-414.02" xlink:href="#linear-gradient"/><linearGradient id="linear-gradient-3" x1="618.77" y1="-794.23" x2="618.77" y2="-497.48" gradientTransform="matrix(1, 0, 0, -1, -144.63, -454.9)" xlink:href="#linear-gradient"/></defs><title>Asset 3a</title><g id="Layer_2" data-name="Layer 2"><g id="d26dba8d-8282-42fd-a478-7c8636ce52fe"><g class="cls-1"><rect class="cls-2" x="21.46" y="59.2" width="306.12" height="211.99"/></g><rect class="cls-3" x="24.63" y="62.36" width="300.58" height="206.45"/><g class="cls-1"><circle class="cls-4" cx="73.47" cy="132.37" r="5.54"/><circle class="cls-4" cx="73.47" cy="165.59" r="5.54"/><circle class="cls-4" cx="73.47" cy="198.82" r="5.54"/></g><rect class="cls-5" x="114.21" y="129.2" width="167.7" height="6.33"/><rect class="cls-5" x="114.21" y="162.43" width="167.7" height="6.33"/><rect class="cls-5" x="114.21" y="195.65" width="167.7" height="6.33"/><g class="cls-1"><rect class="cls-6" x="128.25" y="145.42" width="306.12" height="211.99"/></g><rect class="cls-7" x="131.42" y="148.59" width="300.58" height="206.45"/><circle class="cls-4" cx="180.26" cy="218.58" r="5.54"/><circle class="cls-4" cx="180.26" cy="251.81" r="5.54"/><circle class="cls-4" cx="180.26" cy="285.03" r="5.54"/><rect class="cls-8" x="220.99" y="215.42" width="167.7" height="6.33"/><rect class="cls-8" x="220.99" y="248.65" width="167.7" height="6.33"/><rect class="cls-8" x="220.99" y="281.87" width="167.7" height="6.33"/><g class="cls-1"><path class="cls-9" d="M572.25,142.6c-2.19-.14-4.44-1.65-4.66-3.82-.26-2.59,2.19-4.5,3.74-6.62,2.71-3.77,2.39-9.2-.06-13.12s-6.69-6.56-11.15-7.87c-3.69-1.1-8-1.71-10.2-4.94-3.46-5.23,1.89-11.8,2.34-18a12.06,12.06,0,0,0-10.43-12.39c-3.44-.33-7.48.73-10-1.68a6.84,6.84,0,0,1-1.53-2.48c-1.6-4.16-.85-8.8-.65-13.25s-.4-9.48-3.84-12.31c-2-1.66-4.6-2.3-7.15-2.72a76.33,76.33,0,0,0-23.37.31c-10.78,1.58-22,4.93-29.15,13.16s-8.07,22.52.54,29.16c-.73-.59-.41-1.88.64-3.42V83a21.86,21.86,0,0,0,14.35,20.56v1.53a15.1,15.1,0,0,0-4.43,1.88c-14.68,3.62-44,21.71-44,21.71L390.1,136s-21.14,3.25-20.34,6.51,20.34.82,20.34.82h43.6A23.58,23.58,0,0,0,445,140.37l23.84-13.12c-.12,1.9-.18,3.85-.19,5.83-3.77,2.7-7.46,8.59.29,20.72l.06-.34v.34l-8.67,40c-2.64,2-4.45,3.75-3.82,4.71.36.56,1.34.66,2.67.48l-12,55.4L480.81,295l5.62,32.14-5.29,5.07-19.61,3.64a1.78,1.78,0,0,0-1.42,2.07,1.76,1.76,0,0,0,1.75,1.46h43v-8.1h.39l-.73-9.72,13.58-8.88-4.45-6.81-.64.42-10.84-15.16-1.86-23.88,19.82-71.82h0v-.08h0l-4.87-20,8.54-4.33a12.51,12.51,0,0,0,6.17-15.21c-1.3-3.78-2.91-8.24-4.79-12.78a36.41,36.41,0,0,0,9.65,6.91c14.13,6.64,31.07.31,43.74-8.8C576.53,141.87,574.43,142.75,572.25,142.6ZM511.4,159.46l-3-12.43,4.11,10.51c-.55,1-1,1.67-1.1,1.93ZM494.52,105.2v-.93a21.8,21.8,0,0,0,7.78-3.65,31.33,31.33,0,0,0,.94,9.74c-1.91-2.49-4.68-4.21-8.73-5.15ZM471.69,248.49l17.38-50.24L478.41,257.9Z"/></g><path class="cls-10" d="M512.51,302.65l-15.23,10-17.55,16.83a1.73,1.73,0,0,0-.25,2.19h0a1.73,1.73,0,0,0,2.39.5h0l35-22.86Z"/><path class="cls-4" d="M481,122.48l-35.2,19.33a22.85,22.85,0,0,1-11,2.82H392.45V137.5l41.92-7.12s47.47-29.25,50.6-19.76S481,122.48,481,122.48Z"/><path class="cls-4" d="M518.85,195.26H460.43l8.74-40.34c0-22-4.37-48,17.59-48h0c22,0,19.59,15,19.59,37Z"/><path class="cls-11" d="M481.5,91.56H494v17.26a5.74,5.74,0,0,1-5.74,5.73h-1a5.74,5.74,0,0,1-5.74-5.73V91.56Z"/><polygon class="cls-5" points="460.43 195.17 447.98 252.64 498.74 313.94 512.14 303.41 471.75 246.9 489.64 195.17 460.43 195.17"/><polygon class="cls-12" points="460.43 195.17 447.98 252.64 498.74 313.94 512.14 303.41 471.75 246.9 489.64 195.17 460.43 195.17"/><polygon class="cls-5" points="489.16 195.17 476.3 267.23 486.79 327.35 504.36 327.35 499.57 265.1 518.85 195.17 489.16 195.17"/><path class="cls-13" d="M510.31,160.45l-38.76,27.7,3.16,5.54,45.31-23a12.17,12.17,0,0,0,6-14.81C520.63,140.22,510.31,160.45,510.31,160.45Z"/><path class="cls-13" d="M499.88,128.55l12.79,32.69-39.54,22.91,4,10.29,45.31-23a12.17,12.17,0,0,0,6-14.81c-5.4-15.65-16.56-43.31-26-36.8A7.29,7.29,0,0,0,499.88,128.55Z"/><path class="cls-4" d="M499.1,127l12.79,32.7-38.76,26.1,2.36,7.13,46.1-23a12.17,12.17,0,0,0,6-14.81c-5.4-15.65-16.56-43.3-26-36.8A7.28,7.28,0,0,0,499.1,127Z"/><path class="cls-10" d="M504,327.36H485.76l-23.9,4.48a1.73,1.73,0,0,0-1.41,1.7h0a1.72,1.72,0,0,0,1.73,1.72H504Z"/><path class="cls-13" d="M500.82,128.81s9.47,12.65,7.91,22.14"/><path class="cls-13" d="M481.5,107.61a21.33,21.33,0,0,0,12.45.67V93.14H481.5Z"/><circle class="cls-11" cx="488.83" cy="86.02" r="21.28"/><path class="cls-11" d="M392.45,137.5s-20.57,3.16-19.78,6.33,19.78.79,19.78.79Z"/><path class="cls-11" d="M473.66,185.91s-18.41,9.71-16.62,12.45S476,192.64,476,192.64Z"/><path class="cls-4" d="M473.13,132.77s-15.94,3.48-4,22.14"/><path class="cls-13" d="M492.11,134.35s-15.94,3.48-4,22.14"/><path class="cls-4" d="M492.91,134.35s-15.94,3.48-4,22.14"/><path class="cls-10" d="M504.65,92.85c-4.21,6.82-3.95,15.67-1.17,23.17s7.83,13.94,12.93,20.12c4.78,5.78,9.9,11.62,16.7,14.81,13.74,6.46,30.21.31,42.53-8.55a13.57,13.57,0,0,1-6.11,1.55c-2.12-.14-4.32-1.6-4.54-3.71-.25-2.52,2.19-4.37,3.65-6.44,2.64-3.64,2.31-9-.06-12.79s-6.5-6.36-10.84-7.65c-3.59-1.08-7.82-1.67-9.89-4.8-3.36-5.1,1.83-11.47,2.28-17.55A11.68,11.68,0,0,0,540,79c-3.34-.32-7.29.73-9.69-1.64a6.35,6.35,0,0,1-1.46-2.41c-1.56-4-.83-8.56-.63-12.89s-.41-9.19-3.74-12a14.14,14.14,0,0,0-7-2.64,74,74,0,0,0-22.72.3c-10.49,1.53-21.41,4.79-28.36,12.8s-7.85,21.86.54,28.38c-3-2.3,11.49-15.82,18.28-11.66C493,82,493.15,93.3,504.65,92.85Z"/><rect class="cls-14" width="600" height="400"/></g></g></svg>