<?xml version="1.0" encoding="UTF-8"?> <svg xmlns="http://www.w3.org/2000/svg" xmlns:xlink="http://www.w3.org/1999/xlink" width="715.163" height="526.6" viewBox="0 0 715.163 526.6"><defs><linearGradient id="linear-gradient" x1="1.218" y1="-0.986" x2="1.218" y2="0.014" gradientUnits="objectBoundingBox"><stop offset="0" stop-color="gray" stop-opacity="0.251"></stop><stop offset="0.54" stop-color="gray" stop-opacity="0.122"></stop><stop offset="1" stop-color="gray" stop-opacity="0.102"></stop></linearGradient><linearGradient id="linear-gradient-2" x1="17.117" y1="-1.066" x2="17.117" y2="-0.066" xlink:href="#linear-gradient"></linearGradient><linearGradient id="linear-gradient-3" x1="0.5" y1="-0.765" x2="0.5" y2="0.235" xlink:href="#linear-gradient"></linearGradient></defs><g id="Site_Running" data-name="Site Running" transform="translate(-0.006 -0.011)"><path id="Path_522" data-name="Path 522" d="M19.979,331.486C11.4,332.879.65,336.866.75,346.134c.05,4.7,3.173,8.711,6.21,12.148A230.8,230.8,0,0,0,50.784,396.99c7.732,5.238,16.042,10.247,21.18,18.343s6.431,18.4,6.838,28.2a216.792,216.792,0,0,1-8.1,68.777c25.174,4.795,53.25,9,74.23-6.145,12.562-9.068,21.058-24.26,35.057-30.548,9.347-4.2,19.929-3.83,30.119-3.294q72.35,3.808,144.343,14.291c20.1,2.93,40.588,6.245,60.474,2.458s39.451-16.142,46.783-36.172c1.129-3.087,2.144-6.531,4.673-8.389,2.287-1.658,5.281-1.622,8.06-1.522l167.981,5.774c9.2.314,18.729.572,27.154-3.216,8.168-3.666,14.449-10.719,20.494-17.628,13.827-15.763,28.7-35.157,24.631-56.551-3.251-17.15-17.786-29.133-32.2-37.522s-30.312-15.256-40.9-28.669c-16.114-20.415-15.478-49.634-16.478-76.123a422.84,422.84,0,0,0-8.825-71.336c-4.366-20.644-10.447-41.317-21.816-58.752s-28.754-31.4-48.419-33.956c-25.682-3.344-51.5,12.677-76.624,5.874-21.223-5.717-35.829-26.032-53.414-40.109C384.789,5.77,343.8.532,305.05.053,263.962-.468,221.788,3.69,185.166,22.984c-8.389,4.416-16.592,9.761-22.4,17.564-8.9,11.969-11.062,28.047-16.885,42.038-23.474,56.337-99.818,68.485-124.6,124.221-8.8,19.772-8.711,42.831-2.3,63.6,6.9,22.345,26.3,34.685,34,54.164C44.7,329.9,30.019,329.849,19.979,331.486Z" transform="translate(-0.212 0)" fill="#3f3d56" opacity="0.07"></path><g id="Group_119" data-name="Group 119" transform="translate(615.982 105.957)" opacity="0.2"><path id="Path_523" data-name="Path 523" d="M885.55,318.9s3.43-45.568,29.183-70.328a69.245,69.245,0,0,0,20.6-38.651,116.5,116.5,0,0,0,1.429-21.244" transform="translate(-868.742 -159.809)" fill="none" stroke="#535461" stroke-miterlimit="10" stroke-width="2"></path><path id="Path_524" data-name="Path 524" d="M972.353,161.449c-1.9,5-16.507,16.156-16.507,16.156s-3.573-18.014-1.686-23.038a9.729,9.729,0,0,1,18.2,6.881Z" transform="translate(-888.168 -148.277)" fill="#ffc600"></path><path id="Path_525" data-name="Path 525" d="M977.118,206.6c-4.323,3.187-22.638,4.588-22.638,4.588s6.781-17.071,11.1-20.258A9.726,9.726,0,0,1,977.118,206.6Z" transform="translate(-888.416 -159.911)" fill="#ffc600"></path><path id="Path_526" data-name="Path 526" d="M951.339,272.089c-5.345.565-21.859-7.467-21.859-7.467s14.47-11.312,19.808-11.883a9.729,9.729,0,0,1,2.051,19.351Z" transform="translate(-881.281 -178.077)" fill="#ffc600"></path><path id="Path_527" data-name="Path 527" d="M919.939,317.874c-5.174,1.429-22.809-3.666-22.809-3.666s12.348-13.577,17.521-15.056a9.727,9.727,0,1,1,5.288,18.722Z" transform="translate(-872.047 -191.236)" fill="#ffc600"></path><path id="Path_528" data-name="Path 528" d="M926.861,205.764c2.279,4.866,17.7,14.842,17.7,14.842s2.194-18.236-.086-23.1a9.727,9.727,0,1,0-17.614,8.26Z" transform="translate(-880.27 -160.729)" fill="#ffc600"></path><path id="Path_529" data-name="Path 529" d="M890.6,258.648c3.63,3.959,21.33,8.868,21.33,8.868s-3.366-18.057-7-22.016a9.728,9.728,0,0,0-14.341,13.148Z" transform="translate(-869.45 -175.127)" fill="#ffc600"></path><path id="Path_530" data-name="Path 530" d="M863.58,316.264c2.908,4.516,19.529,12.341,19.529,12.341s-.264-18.365-3.173-22.866a9.729,9.729,0,0,0-16.357,10.54Z" transform="translate(-862.028 -191.948)" fill="#ffc600"></path></g><g id="Group_120" data-name="Group 120" transform="translate(129.718 73.075)"><circle id="Ellipse_124" data-name="Ellipse 124" cx="5.595" cy="5.595" r="5.595" fill="#f6f7f9"></circle><circle id="Ellipse_125" data-name="Ellipse 125" cx="5.595" cy="5.595" r="5.595" transform="translate(14.906)" fill="#f6f7f9"></circle><circle id="Ellipse_126" data-name="Ellipse 126" cx="5.595" cy="5.595" r="5.595" transform="translate(29.819)" fill="#f6f7f9"></circle></g><path id="Path_531" data-name="Path 531" d="M958.475,405.4c-.893-4.545-2.608-8.989-2.651-13.62-.064-7.517,3.937-16.249-1.322-21.8-1.2-1.265-2.808-2.208-3.7-3.687a8.116,8.116,0,0,1-.929-4.159c-.086-8.768,4.745-17.671,1.851-25.982a8.834,8.834,0,0,0-3.316-4.623,9.618,9.618,0,0,0-5.624-1.258c-1.851,0-3.8.207-5.717.243a12.347,12.347,0,0,1-3.208-.422c-2.215-.629-4.095-2.079-6.288-2.794a10.27,10.27,0,0,0-3.573-.493c-4.8-.157-9.189,3.037-12.605,6.131a47.121,47.121,0,0,1-5.4,3.923c.286-.2-6.667,4.573-4.052,4.623a9.106,9.106,0,0,1,5.174,1.8,13.977,13.977,0,0,0,.715,16.206c-1.136-1.115-2.394-2.337-3.68-3.573-3.83-3.766-9.182-8.818-11.7-10.2a82.783,82.783,0,0,1-10.047-7.053s-7.682,4.287-5.316,10.24a24.015,24.015,0,0,1,3.294,1.293,6.169,6.169,0,0,0,.45,2.308,25.444,25.444,0,0,1,6.824,3.344,11.758,11.758,0,0,1,.657,1.022c1.022,1.786,4.2,5.038,8.089,8.653,2.73,2.737,6.324,6.009,9.9,9.161-1.079,2.144-2.215,4.287-2.415,6.431a8.007,8.007,0,0,1-.807-.372c-5.316-2.858-17.721-2.558-17.721-2.558s-10.34-5.4-12.4-17.628c0,0-2.065-7.4-1.479-9.382h-.036l.264-.057,2.48-4.495a1.986,1.986,0,0,0-1.629-2.915c-12.091-1.086-12.662,10-12.662,10h.107l-.036.093c1.479,7.11,2.658,6.538,2.365,12.226l4.723,12.512s.293,4.287,8.861,9.954a185.16,185.16,0,0,1,18.314,14.506s-5.166,2.7-3.251,15.07c2.344,15.12-1.179,36.686-1.179,36.686V468.7l.657-.179c-.086.464-.164.957-.25,1.493a78.471,78.471,0,0,0-.407,21.159c1.772,14.792,8.861,35.014,8.861,35.014a63.309,63.309,0,0,1,3.251,12.8,11.793,11.793,0,0,0,.757,3.287,25.849,25.849,0,0,1,2.072,9.868,69.479,69.479,0,0,0,4.552,24.946c2.994,7.6,4.109,12.062,4.437,14.663-2.144,2.773-4.9,5.8-7.1,6.1-4.137.572-12.112,1.136-6.8,7.96a4.865,4.865,0,0,0,.615.65c-4.037.643-8.475,2.058-4.159,7.6,5.316,6.824,36.622,3.694,36.622,3.694s.2-3.794,0-7.96c2.194-.15,3.573-.286,3.573-.286s.886-16.492-2.951-18.486a8.273,8.273,0,0,0-2.072.5c-.414-2.28-.715-5.116-.929-7.21l1.522-.114v-.114h.093V559.221s-1.772-15.356-8.268-22.152a13.792,13.792,0,0,1-2.144-2.858l-.086-.179c.043-1.944.043-4.566,0-7.574l.093-.164c.114-.186.229-.35.336-.5a6.169,6.169,0,0,1,.486-.572l.093-.122h0s3.573-4.287,15.656-31.284c7.381-16.478,5.431-25.725,2.787-30.491-.557-2.144-1.722-6.946-3.18-15.17a59.514,59.514,0,0,1-.85-10.569,21.261,21.261,0,0,0,5.6.629,19.021,19.021,0,0,0,8.575-1.829c-1.929-2.815-3.945-6.117-2.973-9.354,1.1-3.687,5.459-5.381,7.975-8.353C959.29,415.085,959.368,409.954,958.475,405.4Z" transform="translate(-245.438 -93.274)" fill="url(#linear-gradient)"></path><path id="Path_532" data-name="Path 532" d="M890.911,347.66s-7.331,4.23-5.073,10.154c0,0,7.617,2.258,10.719,7.9s27.075,25.946,27.075,25.946l17.507-8.739s-6.081-8.118-25.317-13.791c0,0-11.34-12.148-15.292-14.413A85.552,85.552,0,0,1,890.911,347.66Z" transform="translate(-252.718 -99.229)" fill="#797c9c"></path><path id="Path_533" data-name="Path 533" d="M895.911,352.66s-7.332,4.23-5.073,10.154c0,0,7.617,2.258,10.719,7.9s27.075,25.946,27.075,25.946l17.507-8.739s-6.081-8.118-25.317-13.791c0,0-11.34-12.148-15.292-14.413A85.554,85.554,0,0,1,895.911,352.66Z" transform="translate(-254.145 -100.656)" opacity="0.05"></path><path id="Path_534" data-name="Path 534" d="M11.163,642.405s-41.2,24.86,34.75,63.132c0,0,16.735-31.07-1.765-56.4a24.945,24.945,0,0,0-32.363-7.089Z" transform="translate(0 -182.347)" fill="#ffc600"></path><path id="Path_535" data-name="Path 535" d="M16.28,643.08s35.264,26.975,34.3,63.654" transform="translate(-4.645 -183.55)" fill="none" stroke="#535461" stroke-miterlimit="10" stroke-width="1"></path><path id="Path_536" data-name="Path 536" d="M65.007,676.907s-12.912-43.868,2.4-76.1a69.242,69.242,0,0,0,5.6-43.439,116.49,116.49,0,0,0-6.152-20.387" transform="translate(-17.101 -153.266)" fill="none" stroke="#535461" stroke-miterlimit="10" stroke-width="2"></path><path id="Path_537" data-name="Path 537" d="M75.241,504.524c0,5.374-9.725,20.951-9.725,20.951S55.79,509.9,55.79,504.524a9.729,9.729,0,0,1,19.458,0h-.007Z" transform="translate(-15.922 -141.225)" fill="#ffc600"></path><path id="Path_538" data-name="Path 538" d="M97.7,544.095c-2.923,4.509-19.551,12.3-19.551,12.3s.3-18.365,3.223-22.866A9.727,9.727,0,0,1,97.7,544.1Z" transform="translate(-22.304 -151.013)" fill="#ffc600"></path><path id="Path_539" data-name="Path 539" d="M95.308,613.88c-4.795,2.422-23.088.715-23.088.715s9.532-15.721,14.327-18.122a9.728,9.728,0,1,1,8.761,17.371h0Z" transform="translate(-20.612 -169.949)" fill="#ffc600"></path><path id="Path_540" data-name="Path 540" d="M82.62,667.92c-4.287,3.194-22.63,4.638-22.63,4.638s6.738-17.085,11.062-20.28A9.728,9.728,0,0,1,82.62,667.92Z" transform="translate(-17.121 -185.631)" fill="#ffc600"></path><path id="Path_541" data-name="Path 541" d="M48.384,562.084c3.852,3.744,21.809,7.624,21.809,7.624s-4.395-17.864-8.253-21.58a9.735,9.735,0,1,0-13.577,13.956h.021Z" transform="translate(-12.961 -155.661)" fill="#ffc600"></path><path id="Path_542" data-name="Path 542" d="M33.173,624.36c4.795,2.422,23.088.715,23.088.715s-9.532-15.721-14.327-18.122a9.728,9.728,0,0,0-8.761,17.371Z" transform="translate(-7.94 -172.94)" fill="#ffc600"></path><path id="Path_543" data-name="Path 543" d="M28.285,687.82c4.287,3.194,22.63,4.638,22.63,4.638s-6.738-17.085-11.062-20.279A9.728,9.728,0,1,0,28.285,687.82Z" transform="translate(-6.946 -191.311)" fill="#ffc600"></path><path id="Path_544" data-name="Path 544" d="M75.241,504.524c0,5.374-9.725,20.951-9.725,20.951S55.79,509.9,55.79,504.524a9.729,9.729,0,0,1,19.458,0h-.007Z" transform="translate(-15.922 -141.225)" opacity="0.25"></path><path id="Path_545" data-name="Path 545" d="M97.7,544.095c-2.923,4.509-19.551,12.3-19.551,12.3s.3-18.365,3.223-22.866A9.727,9.727,0,0,1,97.7,544.1Z" transform="translate(-22.304 -151.013)" opacity="0.25"></path><path id="Path_546" data-name="Path 546" d="M95.308,613.88c-4.795,2.422-23.088.715-23.088.715s9.532-15.721,14.327-18.122a9.728,9.728,0,1,1,8.761,17.371h0Z" transform="translate(-20.612 -169.949)" opacity="0.25"></path><path id="Path_547" data-name="Path 547" d="M82.62,667.92c-4.287,3.194-22.63,4.638-22.63,4.638s6.738-17.085,11.062-20.28A9.728,9.728,0,0,1,82.62,667.92Z" transform="translate(-17.121 -185.631)" opacity="0.25"></path><path id="Path_548" data-name="Path 548" d="M48.384,562.084c3.852,3.744,21.809,7.624,21.809,7.624s-4.395-17.864-8.253-21.58a9.735,9.735,0,1,0-13.577,13.956h.021Z" transform="translate(-12.961 -155.661)" opacity="0.25"></path><path id="Path_549" data-name="Path 549" d="M33.173,624.36c4.795,2.422,23.088.715,23.088.715s-9.532-15.721-14.327-18.122a9.728,9.728,0,0,0-8.761,17.371Z" transform="translate(-7.94 -172.94)" opacity="0.25"></path><path id="Path_550" data-name="Path 550" d="M28.285,687.82c4.287,3.194,22.63,4.638,22.63,4.638s-6.738-17.085-11.062-20.279A9.728,9.728,0,1,0,28.285,687.82Z" transform="translate(-6.946 -191.311)" opacity="0.25"></path><path id="Path_551" data-name="Path 551" d="M106.82,678.077s-12.912-43.839,2.422-76.1a69.242,69.242,0,0,0,5.6-43.439,116.5,116.5,0,0,0-6.152-20.387" transform="translate(-29.037 -153.6)" fill="none" stroke="#535461" stroke-miterlimit="10" stroke-width="2"></path><path id="Path_552" data-name="Path 552" d="M117.051,505.724c0,5.374-9.725,20.951-9.725,20.951S97.6,511.1,97.6,505.724a9.729,9.729,0,0,1,19.458,0Z" transform="translate(-27.856 -141.568)" fill="#ffc600"></path><path id="Path_553" data-name="Path 553" d="M139.521,545.255c-2.923,4.509-19.551,12.3-19.551,12.3s.3-18.364,3.223-22.866a9.727,9.727,0,1,1,16.328,10.576Z" transform="translate(-34.241 -151.344)" fill="#ffc600"></path><path id="Path_554" data-name="Path 554" d="M137.118,615.041c-4.795,2.422-23.088.715-23.088.715s9.532-15.721,14.327-18.121a9.744,9.744,0,1,1,8.761,17.407Z" transform="translate(-32.546 -170.281)" fill="#ffc600"></path><path id="Path_555" data-name="Path 555" d="M124.43,669.09c-4.287,3.194-22.63,4.637-22.63,4.637s6.738-17.085,11.062-20.279A9.728,9.728,0,1,1,124.43,669.09Z" transform="translate(-29.055 -185.965)" fill="#ffc600"></path><path id="Path_556" data-name="Path 556" d="M90.214,563.244c3.852,3.744,21.809,7.625,21.809,7.625s-4.395-17.864-8.253-21.58a9.735,9.735,0,1,0-13.577,13.956h.021Z" transform="translate(-24.901 -155.992)" fill="#ffc600"></path><path id="Path_557" data-name="Path 557" d="M74.983,625.52c4.795,2.422,23.088.715,23.088.715s-9.532-15.721-14.327-18.122a9.728,9.728,0,0,0-8.761,17.371h0Z" transform="translate(-19.874 -173.271)" fill="#ffc600"></path><path id="Path_558" data-name="Path 558" d="M70.095,688.99c4.287,3.194,22.63,4.638,22.63,4.638s-6.738-17.085-11.062-20.279A9.728,9.728,0,1,0,70.095,688.99Z" transform="translate(-18.879 -191.645)" fill="#ffc600"></path><path id="Path_559" data-name="Path 559" d="M952.883,684.3s.843,12.4,2.258,13.82-12.691,2.258-12.691,2.258l1.972-16.078Z" transform="translate(-269 -195.315)" fill="#ffb9b9"></path><path id="Path_560" data-name="Path 560" d="M952.883,684.3s.843,12.4,2.258,13.82-12.691,2.258-12.691,2.258l1.972-16.078Z" transform="translate(-269 -195.315)" opacity="0.05"></path><path id="Path_561" data-name="Path 561" d="M947.885,696.141s-1.972,0-9.025,3.666c0,0-4.795-.843-6.767-7.617,0,0-5.924,10.154-9.868,10.719s-11.562,1.129-6.488,7.9,34.971,3.666,34.971,3.666S951.543,698.114,947.885,696.141Z" transform="translate(-260.894 -197.567)" fill="#e4e2f3"></path><path id="Path_562" data-name="Path 562" d="M947.885,696.141s-1.972,0-9.025,3.666c0,0-4.795-.843-6.767-7.617,0,0-5.924,10.154-9.868,10.719s-11.562,1.129-6.488,7.9,34.971,3.666,34.971,3.666S951.543,698.114,947.885,696.141Z" transform="translate(-260.894 -197.567)" opacity="0.05"></path><path id="Path_563" data-name="Path 563" d="M949.5,707.027l-1.972,5.359L934.56,708.72l.714-5.316.179-1.286.493-3.573s11-2.823,11-1.429a21.884,21.884,0,0,0,.715,3.437c.45,1.736,1.015,3.709,1.429,5C949.33,706.462,949.5,707.027,949.5,707.027Z" transform="translate(-266.748 -198.863)" fill="#ffb9b9"></path><path id="Path_564" data-name="Path 564" d="M939.533,581.605a7.711,7.711,0,0,0,0,7.86,13.653,13.653,0,0,0,2.029,2.808c6.2,6.767,7.9,21.994,7.9,21.994V638.8l-4.23.322-6.767.522L928.307,597.9s-5.924-30.455-3.1-35.814,5.359-38.916,5.359-38.916l2.344-2.422L938.461,515h16.078a10.81,10.81,0,0,1,3.13,3.494c2.7,4.466,5.124,13.756-2.279,30.905-11.562,26.789-14.949,31.02-14.949,31.02A6.5,6.5,0,0,0,939.533,581.605Z" transform="translate(-263.861 -146.992)" fill="#4c4c78"></path><path id="Path_565" data-name="Path 565" d="M939.663,581.435a7.712,7.712,0,0,0,0,7.86,13.655,13.655,0,0,0,2.029,2.808c6.2,6.767,7.9,21.995,7.9,21.995v24.531l-4.23.322-6.767.522-10.154-41.738s-5.924-30.455-3.1-35.814S930.695,523,930.695,523l2.344-2.422,5.552-5.752h16.078a10.811,10.811,0,0,1,3.13,3.494c2.7,4.466,5.123,13.756-2.279,30.905-11.562,26.789-14.949,31.02-14.949,31.02A6.5,6.5,0,0,0,939.663,581.435Z" transform="translate(-263.898 -146.944)" opacity="0.05"></path><path id="Path_566" data-name="Path 566" d="M948.052,700.588l-12.212,1.529.493-3.573s11-2.823,11-1.429A21.888,21.888,0,0,0,948.052,700.588Z" transform="translate(-267.113 -198.863)" opacity="0.1"></path><path id="Path_567" data-name="Path 567" d="M932.38,543.771s.715,22.2.815,36.15v7.86a17.315,17.315,0,0,1-.229,3.094c-.843,2.537.843,8.175.843,8.175a81.394,81.394,0,0,1,5.073,34.971v12.4l-13.534,1.694s2.258-1.694-3.952-18.05a71.29,71.29,0,0,1-4.352-24.738,26.481,26.481,0,0,0-1.979-9.79,12.072,12.072,0,0,1-.715-3.258,64.722,64.722,0,0,0-3.1-12.691s-6.767-20.008-8.46-34.685a80.741,80.741,0,0,1,.393-20.98,52.314,52.314,0,0,1,1.015-5.245s27.568-17.35,37.979-5.359a13.574,13.574,0,0,1,2.351,3.952,26.039,26.039,0,0,1,1.329,4.395C949.094,537.568,932.38,543.771,932.38,543.771Z" transform="translate(-257.537 -145.308)" fill="#4c4c78"></path><circle id="Ellipse_127" data-name="Ellipse 127" cx="14.384" cy="14.384" r="14.384" transform="translate(659.623 246.18)" fill="#ffb9b9"></circle><path id="Path_568" data-name="Path 568" d="M931.815,373.755s5.924,16.635,0,25.382,18.893,5.924,18.893,5.924L960.3,393.5s-11.283,0-11.848-19.744S931.815,373.755,931.815,373.755Z" transform="translate(-265.704 -104.172)" fill="#ffb9b9"></path><path id="Path_569" data-name="Path 569" d="M952.482,520.08a36.976,36.976,0,0,1-6.281,1.572c-3.509.543-7.653.564-10.075-1.572-1.429-1.265-5-1.429-9.225-1.015-8.954.857-21.065,4.195-23.381,4.852a52.328,52.328,0,0,1,1.015-5.245s27.568-17.35,37.979-5.359h6.017a10.809,10.809,0,0,1,3.13,3.494C952.182,519.051,952.482,520.08,952.482,520.08Z" transform="translate(-257.888 -145.305)" opacity="0.1"></path><path id="Path_570" data-name="Path 570" d="M949.5,709.693l-1.972,5.359-12.969-3.666.714-5.316c2.229,4.931,6.031,5.6,6.031,5.6a46.007,46.007,0,0,1,7.76-3.4C949.33,709.128,949.5,709.693,949.5,709.693Z" transform="translate(-266.748 -201.529)" opacity="0.1"></path><path id="Path_571" data-name="Path 571" d="M943.135,707.591s-1.972,0-9.025,3.666c0,0-4.795-.843-6.767-7.617,0,0-5.924,10.154-9.868,10.719s-11.562,1.129-6.488,7.9,34.971,3.666,34.971,3.666S946.8,709.564,943.135,707.591Z" transform="translate(-259.538 -200.836)" fill="#e4e2f3"></path><path id="Path_572" data-name="Path 572" d="M863.02,364.5s.55-10.983,12.091-9.911a1.973,1.973,0,0,1,1.558,2.858L874.3,361.9Z" transform="translate(-246.329 -101.186)" fill="#ffb9b9"></path><path id="Path_573" data-name="Path 573" d="M929.667,395.8s-13.82-2.258-17.486-5.073c0,0-2.823,5.359-7.9,2.537s-16.921-2.537-16.921-2.537a25.575,25.575,0,0,1-11.848-17.486s-1.972-7.332-1.429-9.289c0,0-7.332-7.617-11,2.537,1.429,7.053,2.537,6.488,2.258,12.148l4.509,12.4s.279,4.23,8.461,9.868A180.933,180.933,0,0,1,895.8,415.3s-4.938,2.68-3.1,14.949c2.244,15.006-1.129,36.379-1.129,36.379v13.82s28.2-8.175,32.992-3.952,16.357,0,16.357,0a157.573,157.573,0,0,1-3.387-16.357,71.692,71.692,0,0,1,.279-22.866s7.331-19.458,10.719-27.354-2.537-18.579-8.461-22.559-8.125-1.579-8.125-1.579S942.357,393.266,929.667,395.8Z" transform="translate(-246.349 -103.097)" fill="#797c9c"></path><path id="Path_574" data-name="Path 574" d="M905.55,465.568s2.251-.543,13.527-2.237,31.02,2.258,31.02,2.258" transform="translate(-258.468 -132.124)" opacity="0.05"></path><path id="Path_575" data-name="Path 575" d="M918.965,345.76c6.431.136,11.19,8.068,8.339,13.791-1.25,2.515-3.673,4.73-3.423,7.524a27.184,27.184,0,0,0,1.086,3.666c1.351,5.717-5.488,11.069-3.923,16.714a12.076,12.076,0,0,0,2.444,4.094l11.876,14.963a11.233,11.233,0,0,1,1.772,2.744,11.577,11.577,0,0,1,.514,4.395c-.057,7.146.407,14.813,4.623,20.608a18.936,18.936,0,0,0,23.073,5.581c-1.844-2.794-3.766-6.067-2.858-9.289,1.05-3.651,5.209-5.338,7.61-8.282,2.9-3.573,2.973-8.646,2.144-13.155s-2.494-8.918-2.53-13.505c-.057-7.453,3.759-16.114-1.265-21.616-1.15-1.258-2.68-2.187-3.537-3.659a8.315,8.315,0,0,1-.886-4.13c-.079-8.689,4.53-17.528,1.765-25.768a8.754,8.754,0,0,0-3.166-4.587c-3.916-2.637-9.347-.079-13.877-1.429-2.144-.622-3.909-2.065-6-2.773-5.645-1.908-10.869,1.922-14.77,5.6a45.031,45.031,0,0,1-5.152,3.887C923.1,340.98,916.464,345.71,918.965,345.76Z" transform="translate(-262.136 -94.514)" opacity="0.1"></path><path id="Path_576" data-name="Path 576" d="M919.964,345.76c6.431.136,11.19,8.068,8.339,13.791-1.25,2.515-3.673,4.73-3.423,7.524a27.176,27.176,0,0,0,1.086,3.666c1.35,5.717-5.488,11.069-3.923,16.714a12.078,12.078,0,0,0,2.444,4.094l11.876,14.963a11.229,11.229,0,0,1,1.772,2.744,11.577,11.577,0,0,1,.515,4.395c-.057,7.146.407,14.813,4.623,20.608a18.936,18.936,0,0,0,23.074,5.581c-1.844-2.794-3.766-6.067-2.858-9.289,1.05-3.651,5.209-5.338,7.61-8.282,2.9-3.573,2.973-8.646,2.144-13.155s-2.494-8.918-2.529-13.505c-.057-7.453,3.758-16.114-1.265-21.616-1.151-1.258-2.68-2.187-3.537-3.659a8.317,8.317,0,0,1-.886-4.13c-.079-8.689,4.53-17.528,1.765-25.768a8.754,8.754,0,0,0-3.166-4.587c-3.916-2.637-9.347-.079-13.877-1.429-2.144-.622-3.909-2.065-6-2.773-5.645-1.908-10.869,1.922-14.77,5.6a45.037,45.037,0,0,1-5.152,3.887C924.1,340.98,917.464,345.71,919.964,345.76Z" transform="translate(-262.421 -94.514)" fill="#b36362"></path><path id="Path_577" data-name="Path 577" d="M590.068,485.041a24.812,24.812,0,0,1-4.223-5.181c-2.472-3.887-6.61-5.981-9.447-7.024v-1.265h.172l-.079-1.172h.079l-.2-3.1h0l-1.007-15.492s-3.644-10.383,2.787-19.887.4-18.622-5.645-22.187c0,0-2.858-15.056-.4-18.622a103.7,103.7,0,0,0-10.147-5.166q-.078-.279-.15-.572c-.064-1.429-.15-2.808-.229-4.209a15.381,15.381,0,0,1,.4-2.144q.118-.439.257-.9a15.456,15.456,0,0,0,9.868-14.334,15.174,15.174,0,0,0-.958-5.316,6.768,6.768,0,0,0,.715-1.686,6.881,6.881,0,0,0-.958-4.945c-1.6-3.573-5.638-6.838-8.575-8.032-4.195-1.715-10.511-1.308-14.877-.786-2.451.293-5.252,1.122-6.138,3.387a23.394,23.394,0,0,0-.557,2.608c-.915,3.459-4.88,5.073-7.332,7.717-2.144,2.337-3.115,5.5-3.816,8.575a79.168,79.168,0,0,0-1.429,26.918c.25,2.072.579,4.13.929,6.188-1.472,2.072-2.8,5.717-2.194,12.148l-4.838,22.981-2.015,13.47a11.774,11.774,0,0,0,3.63,10.3,90.731,90.731,0,0,1,9.139,11.476,27.318,27.318,0,0,0-1.472,9.132c.05,1.429.129,2.78.229,4.08a36.336,36.336,0,0,0,1.544,8.075c.564,5.531,1.686,12.605,3.873,17.15l.807,24.167s-1.208,22.187-3.63,26.546,5.245,41.209,5.245,41.209V604.3l-1.293,3.773-.322-.243c-6.052,7.532,0,10.3,0,10.3s1.644.079,4.287.179a4.866,4.866,0,0,0,2.58,5.366s34.3,1.586,40.345,0,4.437-7.146,1.208-6.738a14.762,14.762,0,0,1-4.831-.636c1.886-2.208.379-5.2-2.022-4.909-3.23.393-10.49-2.48-10.49-2.48v.05a5.4,5.4,0,0,0-.715-.214,80.881,80.881,0,0,1-7.982-2.251c-1.558-3.337-5.145-12.312-2.573-19.293a34.643,34.643,0,0,0,1.544-11.39,130.115,130.115,0,0,1,5.309-36.143l4.838-16.628s6.86-20.208,7.26-25.725l-.057-8.089c5.674,3.651,10.175,2.544,13.055.85a3.108,3.108,0,0,0,.5-5.045Zm-53.843-42.031c.136-.579.25-1.215.35-1.879h2.858a14.719,14.719,0,0,1,1.429,7.8C538.676,448.212,535.4,446.511,536.225,443.009Z" transform="translate(-148.404 -97.775)" fill="url(#linear-gradient-2)"></path><path id="Path_578" data-name="Path 578" d="M547.48,705.013l-1.551,4.659,5.045,5.045,16.692,3.88,12.033-1.165-.779-4.287h0a5.152,5.152,0,0,0-3.823-3.759c-4.945-1.165-14.377-3.809-16.364-7.5Z" transform="translate(-155.822 -200.336)" fill="#db8b8b"></path><path id="Path_579" data-name="Path 579" d="M547.48,705.013l-1.551,4.659,5.045,5.045,16.692,3.88,12.033-1.165-.779-4.287h0a5.152,5.152,0,0,0-3.823-3.759c-4.945-1.165-14.377-3.809-16.364-7.5Z" transform="translate(-155.822 -200.336)" opacity="0.1"></path><path id="Path_580" data-name="Path 580" d="M574.784,718.929l-2.329-3.108,2.329-3.573s6.989,2.823,10.09,2.43,4.659,5.045-1.165,6.6-38.823,0-38.823,0-5.824-2.715,0-10.09l5.045,3.88s8.575,4.659,12.812,3.88Z" transform="translate(-154.785 -202.991)" fill="#474463"></path><path id="Path_581" data-name="Path 581" d="M588.916,725.053l-12.033,1.165L560.2,722.309l-5.045-5,.414-1.236.579-1.729.565-1.694,11.255-3.108a6.964,6.964,0,0,0,2.279,2.287c3.659,2.5,10.225,4.287,14.077,5.209a4.125,4.125,0,0,1,.479.143,5.132,5.132,0,0,1,3.344,3.616Z" transform="translate(-158.457 -202.52)" fill="#db8b8b"></path><path id="Path_582" data-name="Path 582" d="M588.916,727.662l-12.033,1.165L560.2,724.918l-5.045-5,.414-1.236,4.638,3.573s8.575,4.659,12.812,3.88h12.033l-2.33-3.108,2.094-3.23a5.131,5.131,0,0,1,3.344,3.616Z" transform="translate(-158.457 -205.129)" opacity="0.1"></path><g id="Group_124" data-name="Group 124" transform="translate(132.907 69.91)"><rect id="Rectangle_553" data-name="Rectangle 553" width="412.888" height="323.941" fill="#3f3d56"></rect><g id="Group_121" data-name="Group 121" transform="translate(98.404 41.797)" opacity="0.1"><path id="Path_583" data-name="Path 583" d="M427.144,158.8H325.285a1.236,1.236,0,0,1-.008-2.472H427.144a1.236,1.236,0,0,1,0,2.472Z" transform="translate(-323.801 -156.323)" fill="#f2f2f2"></path><path id="Path_584" data-name="Path 584" d="M559.879,177.824H399.673a1.236,1.236,0,0,1,0-2.472H559.879a1.236,1.236,0,0,1,0,2.472Z" transform="translate(-345.035 -161.754)" fill="#f2f2f2"></path><path id="Path_585" data-name="Path 585" d="M427.838,196.853H325.978a1.236,1.236,0,0,1,0-2.472H427.838a1.236,1.236,0,0,1,0,2.472Z" transform="translate(-324 -167.186)" fill="#f2f2f2"></path><path id="Path_586" data-name="Path 586" d="M583.184,197.2H481.325a1.236,1.236,0,1,1,0-2.472H583.184a1.236,1.236,0,1,1,0,2.472Z" transform="translate(-368.341 -167.285)" fill="#f2f2f2"></path><path id="Path_587" data-name="Path 587" d="M428.184,215.882H326.324a1.236,1.236,0,0,1,0-2.472H428.184a1.236,1.236,0,0,1,0,2.472Z" transform="translate(-324.099 -172.617)" fill="#f2f2f2"></path><path id="Path_588" data-name="Path 588" d="M428.529,234.912H326.67a1.236,1.236,0,1,1,0-2.472H428.529a1.236,1.236,0,0,1,0,2.472Z" transform="translate(-324.198 -178.049)" fill="#f2f2f2"></path><path id="Path_589" data-name="Path 589" d="M522.262,159.141H493.088a1.236,1.236,0,0,1,0-2.472h29.174a1.236,1.236,0,0,1,0,2.472Z" transform="translate(-371.699 -156.422)" fill="#f2f2f2"></path><path id="Path_590" data-name="Path 590" d="M522.262,215.882H493.088a1.236,1.236,0,0,1,0-2.472h29.174a1.236,1.236,0,0,1,0,2.472Z" transform="translate(-371.699 -172.617)" fill="#f2f2f2"></path><path id="Path_591" data-name="Path 591" d="M522.26,234.566H493.087a1.236,1.236,0,1,1-.007-2.472H522.26a1.236,1.236,0,1,1,.008,2.472Z" transform="translate(-371.697 -177.95)" fill="#f2f2f2"></path><path id="Path_592" data-name="Path 592" d="M590.769,234.566H561.6a1.236,1.236,0,0,1,0-2.472h29.173a1.236,1.236,0,1,1,.008,2.472Z" transform="translate(-391.253 -177.95)" fill="#f2f2f2"></path><path id="Path_593" data-name="Path 593" d="M354.113,177.824H324.94a1.236,1.236,0,1,1,0-2.472h29.173a1.236,1.236,0,0,1,0,2.472Z" transform="translate(-323.704 -161.754)" fill="#f2f2f2"></path></g><g id="Group_122" data-name="Group 122" transform="translate(98.281 242.055)" opacity="0.1"><path id="Path_594" data-name="Path 594" d="M427.318,439.043H325.459a1.236,1.236,0,1,1,0-2.472H427.318a1.236,1.236,0,1,1,0,2.472Z" transform="translate(-323.728 -436.571)" fill="#f2f2f2"></path><path id="Path_595" data-name="Path 595" d="M426.626,477.1H324.767a1.236,1.236,0,0,1,0-2.472H426.626a1.236,1.236,0,0,1,0,2.472Z" transform="translate(-323.531 -447.434)" fill="#f2f2f2"></path><path id="Path_596" data-name="Path 596" d="M426.973,496.13H325.113a1.236,1.236,0,0,1,0-2.472H426.973a1.236,1.236,0,0,1,0,2.472Z" transform="translate(-323.63 -452.865)" fill="#f2f2f2"></path><path id="Path_597" data-name="Path 597" d="M516.9,477.447H487.726a1.236,1.236,0,1,1,0-2.472H516.9a1.236,1.236,0,0,1,0,2.472Z" transform="translate(-370.044 -447.533)" fill="#f2f2f2"></path><path id="Path_598" data-name="Path 598" d="M516.9,496.13H487.726a1.236,1.236,0,1,1,0-2.472H516.9a1.236,1.236,0,0,1,0,2.472Z" transform="translate(-370.044 -452.865)" fill="#f2f2f2"></path><path id="Path_599" data-name="Path 599" d="M585.4,477.447H556.231a1.236,1.236,0,0,1,0-2.472H585.4a1.236,1.236,0,0,1,0,2.472Z" transform="translate(-389.597 -447.533)" fill="#f2f2f2"></path><path id="Path_600" data-name="Path 600" d="M560.052,458.072H399.846a1.236,1.236,0,0,1,0-2.472H560.052a1.236,1.236,0,0,1,0,2.472Z" transform="translate(-344.961 -442.002)" fill="#f2f2f2"></path><path id="Path_601" data-name="Path 601" d="M354.286,458.072H325.113a1.236,1.236,0,0,1,0-2.472h29.173a1.236,1.236,0,0,1,0,2.472Z" transform="translate(-323.63 -442.002)" fill="#f2f2f2"></path><path id="Path_602" data-name="Path 602" d="M560.052,515.505H399.846a1.236,1.236,0,0,1,0-2.472H560.052a1.236,1.236,0,1,1,0,2.472Z" transform="translate(-344.961 -458.395)" fill="#f2f2f2"></path><path id="Path_603" data-name="Path 603" d="M354.286,515.505H325.113a1.236,1.236,0,0,1,0-2.472h29.173a1.236,1.236,0,1,1,0,2.472Z" transform="translate(-323.63 -458.395)" fill="#f2f2f2"></path></g><g id="Group_123" data-name="Group 123" transform="translate(137.714 131.295)"><path id="Path_604" data-name="Path 604" d="M418.273,281.57l-39.557,39.062,39.557,39.062,8.9-8.9-29.915-29.915,30.162-30.162Z" transform="translate(-378.715 -281.57)" fill="#ffc600"></path><path id="Path_605" data-name="Path 605" d="M512.071,281.57l39.557,39.062-39.557,39.062-8.9-8.9,29.915-29.915-30.162-30.162Z" transform="translate(-414.168 -281.57)" fill="#ffc600"></path></g><circle id="Ellipse_128" data-name="Ellipse 128" cx="4.941" cy="4.941" r="4.941" transform="translate(6.04 3.294)" fill="#ffc600"></circle><circle id="Ellipse_129" data-name="Ellipse 129" cx="4.941" cy="4.941" r="4.941" transform="translate(19.217 3.294)" fill="#ffc600"></circle><circle id="Ellipse_130" data-name="Ellipse 130" cx="4.941" cy="4.941" r="4.941" transform="translate(32.394 3.294)" fill="#ffc600"></circle><rect id="Rectangle_554" data-name="Rectangle 554" width="412.888" height="1.647" transform="translate(0 16.472)" opacity="0.1"></rect></g><path id="Path_606" data-name="Path 606" d="M584.014,726.529l-2.33-3.108,2.33-3.573s6.988,2.823,10.09,2.43,4.659,5.045-1.165,6.6-38.823,0-38.823,0-5.824-2.715,0-10.09l5.045,3.88s8.575,4.659,12.812,3.88Z" transform="translate(-157.42 -205.16)" fill="#474463"></path><path id="Path_607" data-name="Path 607" d="M575.956,406.312s-18.636,1.944-15.913-5.824a13.98,13.98,0,0,0,.572-6.853,19,19,0,0,0-3.294-7.9l17.471,2.715a21.874,21.874,0,0,0-2.365,5.609C570.347,402.3,575.956,406.312,575.956,406.312Z" transform="translate(-159.073 -110.098)" fill="#db8b8b"></path><path id="Path_608" data-name="Path 608" d="M538.86,538.41s.386,16.692,4.287,24.846l.779,23.681s-1.165,21.737-3.494,26.01,5.045,40.373,5.045,40.373v6.21s12.405,4.645,15.921-.786l-3.494-46.2,1.551-64.054Z" transform="translate(-153.804 -153.674)" fill="#474463"></path><path id="Path_609" data-name="Path 609" d="M538.86,538.41s.386,16.692,4.287,24.846l.779,23.681s-1.165,21.737-3.494,26.01,5.045,40.373,5.045,40.373v6.21s12.405,4.645,15.921-.786l-3.494-46.2,1.551-64.054Z" transform="translate(-153.804 -153.674)" opacity="0.1"></path><path id="Path_610" data-name="Path 610" d="M526.246,463.41l-2.33,6.21-1.944,13.2a11.674,11.674,0,0,0,3.494,10.09c4.659,4.659,10.869,14.363,10.869,14.363l7.374-22.152s-7.374-1.165-6.21-6.21.779-14.363.779-14.363Z" transform="translate(-148.951 -132.267)" fill="#cbcdda"></path><path id="Path_611" data-name="Path 611" d="M526.246,462.41l-2.33,6.21-1.944,13.2a11.675,11.675,0,0,0,3.494,10.09c4.659,4.659,10.869,14.363,10.869,14.363l7.374-22.152s-7.374-1.165-6.21-6.21.779-14.363.779-14.363Z" transform="translate(-148.951 -131.982)" opacity="0.05"></path><path id="Path_612" data-name="Path 612" d="M570.646,711.8c-5,7.86-12.727,3.394-14.106,2.508l.565-1.693,11.255-3.108A6.973,6.973,0,0,0,570.646,711.8Z" transform="translate(-158.851 -202.511)" opacity="0.1"></path><path id="Path_613" data-name="Path 613" d="M580.71,542.369c-.386,5.438-6.989,25.232-6.989,25.232l-4.652,16.292a129.608,129.608,0,0,0-5.116,35.443,34.465,34.465,0,0,1-1.486,11.154c-3.108,8.575,3.108,20.187,3.108,20.187-5.438,9.7-14.749,3.108-14.749,3.108v-6.21s-7.374-33.771-5.438-40.373,2.715-24.46,2.715-24.46v-32.22a36.563,36.563,0,0,1-10.654-23.181c-.093-1.272-.164-2.608-.214-3.994-.314-8.761,5.674-19.029,8.01-22.688.565-.886.915-1.379.915-1.379l34.3,13.577h.079v4.266Z" transform="translate(-153.337 -142.505)" fill="#474463"></path><path id="Path_614" data-name="Path 614" d="M574.8,388.455a21.875,21.875,0,0,0-2.365,5.609,15.191,15.191,0,0,1-11.812-.429,19,19,0,0,0-3.294-7.9Z" transform="translate(-159.076 -110.098)" opacity="0.1"></path><circle id="Ellipse_131" data-name="Ellipse 131" cx="15.142" cy="15.142" r="15.142" transform="translate(392.816 253.898)" fill="#db8b8b"></circle><path id="Path_615" data-name="Path 615" d="M583.349,517.137h-.164c-16.278,3.344-36.715-13.62-36.715-13.62a20.139,20.139,0,0,0,1.429-2.858c.564-.886.915-1.379.915-1.379l34.3,13.577.086,1.358Z" transform="translate(-155.976 -142.505)" opacity="0.1"></path><path id="Path_616" data-name="Path 616" d="M572.873,410.354s-21.737-13.2-28.726-7.767l-9.7,12.419s-6.21,1.944-5.045,14.363l-4.659,22.516,13.977,3.494s8.153,7.767,1.551,19.022c0,0,20.573,17.078,36.879,13.577l-1.2-18.229s-3.494-10.09,2.715-19.408.386-18.243-5.438-21.737C573.267,428.6,570.544,413.848,572.873,410.354Z" transform="translate(-149.774 -114.532)" fill="#cbcdda"></path><path id="Path_617" data-name="Path 617" d="M592.138,524.81s8.153,1.551,12.034,7.767a24.215,24.215,0,0,0,4.066,5.073,3.08,3.08,0,0,1-.479,4.909c-3.08,1.851-8.1,2.994-14.449-2.222C582.434,531.413,592.138,524.81,592.138,524.81Z" transform="translate(-167.874 -149.792)" fill="#db8b8b"></path><path id="Path_618" data-name="Path 618" d="M570.838,424.193s-7.767-.779-9.7,19.408-5.045,24.846-5.045,24.846-1.944,10.483,2.715,16.692,13.577,19.408,13.577,19.408,9.7,2.715,11.648-6.989L572,475.042s-1.944-7.767,2.715-13.2S582.871,420.306,570.838,424.193Z" transform="translate(-158.607 -120.99)" opacity="0.1"></path><path id="Path_619" data-name="Path 619" d="M571.928,422.563s-7.767-.779-9.7,19.408-5.045,24.846-5.045,24.846-1.944,10.483,2.715,16.692,13.577,19.408,13.577,19.408,9.7,2.715,11.647-6.988l-12.033-22.516s-1.937-7.76,2.715-13.17S583.962,418.676,571.928,422.563Z" transform="translate(-158.918 -120.525)" fill="#cbcdda"></path><path id="Path_620" data-name="Path 620" d="M584.809,443.05s.779,12.033-2.715,18.636-3.494,15.142,0,19.8" transform="translate(-165.396 -126.456)" opacity="0.1"></path><path id="Path_621" data-name="Path 621" d="M579.736,419.773s-3.108-3.108-12.033-3.494-12.812-3.108-12.812-3.108" transform="translate(-158.38 -117.927)" opacity="0.1"></path><path id="Path_622" data-name="Path 622" d="M549.7,348.943c-2.358.293-5.052,1.1-5.9,3.316a23.337,23.337,0,0,0-.536,2.558c-.879,3.394-4.695,5-7.053,7.56-2.079,2.287-2.994,5.381-3.673,8.4a78.951,78.951,0,0,0-1.365,26.375c.757,6.431,2.308,12.777,2.737,19.243s-.357,13.27-3.894,18.7c-1.522,2.337-3.523,4.387-4.6,6.96,2.229,1.808,5.295,2.065,8.168,2.144q5,.172,10,0a10.679,10.679,0,0,0,5.095-1.058,7.864,7.864,0,0,0,2.672-2.858c1.908-3.244,2.394-7.146,2.308-10.9s-.679-7.5-.715-11.262c-.036-2.051.121-4.223,1.3-5.9a18.872,18.872,0,0,1,3.251-3.008c4.159-3.68,5.581-9.59,5.717-15.142s-.779-11.112-.307-16.642c.186-2.144.993-4.766,3.123-5.188a12.053,12.053,0,0,0,2.029-.257c1.708-.657,1.544-3.066,2.029-4.83.55-1.979,2.237-3.509,2.715-5.509,1.115-4.695-4.859-10.3-8.775-11.94C560,348.028,553.928,348.436,549.7,348.943Z" transform="translate(-149.965 -99.469)" opacity="0.1"></path><path id="Path_623" data-name="Path 623" d="M549.2,347.852c-2.358.293-5.052,1.1-5.9,3.316a23.293,23.293,0,0,0-.536,2.558c-.879,3.394-4.695,5-7.053,7.56-2.079,2.287-2.994,5.381-3.673,8.4a78.949,78.949,0,0,0-1.365,26.375c.758,6.431,2.308,12.777,2.737,19.243s-.357,13.27-3.894,18.7c-1.522,2.337-3.523,4.387-4.6,6.96,2.229,1.808,5.295,2.065,8.168,2.144q5,.171,10,0a10.678,10.678,0,0,0,5.095-1.058,7.865,7.865,0,0,0,2.672-2.858c1.908-3.244,2.394-7.146,2.308-10.9s-.679-7.5-.715-11.262c-.036-2.051.121-4.223,1.3-5.9a18.872,18.872,0,0,1,3.251-3.008c4.159-3.68,5.581-9.59,5.717-15.142s-.779-11.112-.307-16.642c.186-2.144.993-4.766,3.123-5.188a12.059,12.059,0,0,0,2.029-.257c1.708-.657,1.544-3.066,2.029-4.831.55-1.979,2.237-3.509,2.715-5.509,1.115-4.695-4.859-10.3-8.775-11.94C559.474,346.937,553.4,347.337,549.2,347.852Z" transform="translate(-149.822 -99.156)" fill="#472727"></path><g id="Group_125" data-name="Group 125" transform="translate(498.937 243.551)"><rect id="Rectangle_555" data-name="Rectangle 555" width="144.322" height="177.357" fill="url(#linear-gradient-3)"></rect><rect id="Rectangle_556" data-name="Rectangle 556" width="139.792" height="171.79" transform="translate(2.265 2.787)" fill="#ffc600"></rect><rect id="Rectangle_557" data-name="Rectangle 557" width="28.583" height="28.583" transform="translate(11.655 17.864)" fill="#e8eaf1"></rect><rect id="Rectangle_558" data-name="Rectangle 558" width="101.469" height="5.717" transform="translate(25.946 63.597)" fill="#e8eaf1"></rect><rect id="Rectangle_559" data-name="Rectangle 559" width="101.469" height="5.717" transform="translate(25.946 75.745)" fill="#e8eaf1"></rect><rect id="Rectangle_560" data-name="Rectangle 560" width="101.469" height="5.717" transform="translate(25.946 87.892)" fill="#e8eaf1"></rect><rect id="Rectangle_561" data-name="Rectangle 561" width="101.469" height="5.717" transform="translate(25.946 100.04)" fill="#e8eaf1"></rect><rect id="Rectangle_562" data-name="Rectangle 562" width="101.469" height="5.717" transform="translate(25.946 112.188)" fill="#e8eaf1"></rect><rect id="Rectangle_563" data-name="Rectangle 563" width="101.469" height="5.717" transform="translate(25.946 124.335)" fill="#e8eaf1"></rect><rect id="Rectangle_564" data-name="Rectangle 564" width="101.469" height="5.717" transform="translate(25.946 136.483)" fill="#e8eaf1"></rect></g></g></svg> 